<svg width="23" height="24" viewBox="0 0 23 24" fill="none" xmlns="http://www.w3.org/2000/svg">
<path fill-rule="evenodd" clip-rule="evenodd" d="M17.575 10.2326C17.575 16.5812 12.5878 20.142 11.3669 20.9207C11.2013 21.0264 10.998 21.0264 10.8324 20.9207C9.61147 20.1412 4.625 16.5796 4.625 10.2326C4.625 6.23814 7.52396 3 11.1 3C14.676 3 17.575 6.23814 17.575 10.2326Z" stroke="#443A39" stroke-width="1.5" stroke-linejoin="round"/>
<path fill-rule="evenodd" clip-rule="evenodd" d="M11.0971 13.8478C12.8851 13.8478 14.3346 12.2288 14.3346 10.2315C14.3346 8.2343 12.8851 6.61523 11.0971 6.61523C9.3091 6.61523 7.85962 8.2343 7.85962 10.2315C7.85962 12.2288 9.3091 13.8478 11.0971 13.8478Z" stroke="#443A39" stroke-width="1.5" stroke-linejoin="round"/>
</svg>
