<svg width="24" height="24" viewBox="0 0 24 24" fill="none" xmlns="http://www.w3.org/2000/svg">
<path fill-rule="evenodd" clip-rule="evenodd" d="M17 5C18.1 5 19 5.9 19 7V9.65C19 10.1 18.85 10.54 18.56 10.9L15.08 15.25C14.7 15.72 14.13 16 13.52 16H10C10 17.66 8.66 19 7 19C5.34 19 4 17.66 4 16H3C2.45 16 2 15.55 2 15V13C2 10.79 3.79 9 6 9H9C9.55 9 10 9.45 10 10V14H13.52L17 9.65V7H15C14.45 7 14 6.55 14 6C14 5.45 14.45 5 15 5H17ZM6 16C6 16.55 6.45 17 7 17C7.55 17 8 16.55 8 16H6ZM9 6H6C5.45 6 5 6.45 5 7C5 7.55 5.45 8 6 8H9C9.55 8 10 7.55 10 7C10 6.45 9.55 6 9 6ZM16 16C16 14.34 17.34 13 19 13C20.66 13 22 14.34 22 16C22 17.66 20.66 19 19 19C17.34 19 16 17.66 16 16ZM18 16C18 16.55 18.45 17 19 17C19.55 17 20 16.55 20 16C20 15.45 19.55 15 19 15C18.45 15 18 15.45 18 16Z" fill="url(#paint0_linear_1038_12403)"/>
<defs>
<linearGradient id="paint0_linear_1038_12403" x1="22" y1="19" x2="-0.0208602" y2="9.87893" gradientUnits="userSpaceOnUse">
<stop stop-color="#FB3333"/>
<stop offset="1" stop-color="#FF5858"/>
</linearGradient>
</defs>
</svg>
