<svg width="46" height="47" viewBox="0 0 46 47" fill="none" xmlns="http://www.w3.org/2000/svg">
<path opacity="0.6" d="M42.8096 29.9276C42.8096 39.0004 34.0207 46.3553 23.179 46.3553C12.3373 46.3553 3.54834 39.0004 3.54834 29.9276C3.54834 20.8549 12.3373 13.5 23.179 13.5C34.0207 13.5 42.8096 20.8549 42.8096 29.9276Z" fill="black"/>
<path d="M45.5 22.5C45.5 34.9264 35.4264 45 23 45C10.5736 45 0.5 34.9264 0.5 22.5C0.5 10.0736 10.5736 0 23 0C35.4264 0 45.5 10.0736 45.5 22.5Z" fill="black"/>
<path d="M30.5001 26.1901V28.4401C30.5009 28.6489 30.4581 28.8557 30.3745 29.0471C30.2908 29.2385 30.168 29.4103 30.0141 29.5515C29.8602 29.6927 29.6785 29.8002 29.4806 29.8671C29.2828 29.934 29.0731 29.9589 28.8651 29.9401C26.5572 29.6893 24.3403 28.9007 22.3926 27.6376C20.5804 26.4861 19.0441 24.9497 17.8926 23.1376C16.6251 21.181 15.8363 18.9533 15.5901 16.6351C15.5713 16.4277 15.596 16.2186 15.6624 16.0213C15.7289 15.8239 15.8358 15.6426 15.9761 15.4888C16.1165 15.335 16.2874 15.2121 16.4779 15.128C16.6684 15.0438 16.8743 15.0003 17.0826 15.0001H19.3326C19.6966 14.9965 20.0494 15.1254 20.3254 15.3627C20.6014 15.6001 20.7816 15.9297 20.8326 16.2901C20.9275 17.0101 21.1037 17.7171 21.3576 18.3976C21.4585 18.666 21.4803 18.9578 21.4205 19.2382C21.3607 19.5187 21.2217 19.7762 21.0201 19.9801L20.0676 20.9326C21.1352 22.8102 22.6899 24.3649 24.5676 25.4326L25.5201 24.4801C25.724 24.2784 25.9814 24.1395 26.2619 24.0796C26.5424 24.0198 26.8341 24.0417 27.1026 24.1426C27.783 24.3965 28.49 24.5726 29.2101 24.6676C29.5744 24.719 29.9071 24.9025 30.145 25.1832C30.3828 25.4639 30.5092 25.8223 30.5001 26.1901Z" stroke="white" stroke-width="2" stroke-linecap="round" stroke-linejoin="round"/>
</svg>
