<svg width="16" height="16" viewBox="0 0 16 16" fill="none" xmlns="http://www.w3.org/2000/svg">
<path d="M7.95729 1.33325H8.04841C8.18901 1.36007 8.32258 1.44339 8.38793 1.57383C8.44365 1.67511 8.43089 1.7941 8.43219 1.90501C8.43167 3.05036 8.43167 4.1957 8.43219 5.34105C9.00916 4.80391 9.58483 4.26574 10.161 3.72809C10.2381 3.65805 10.3099 3.57343 10.4128 3.54219C10.5583 3.4935 10.7307 3.53828 10.8301 3.65649C11.1616 4.03323 11.4719 4.42899 11.7511 4.84635C12.5017 5.95681 13.0289 7.23364 13.1812 8.57087C13.2557 9.22257 13.2531 9.88858 13.1112 10.5314C12.8415 11.7991 12.0773 12.9502 11.02 13.6982C10.2251 14.2635 9.26874 14.6077 8.29264 14.6506C8.66782 14.5767 9.03181 14.422 9.31639 14.1625C9.70251 13.8216 9.9483 13.327 9.98188 12.8127C10.0183 12.2498 9.84467 11.6893 9.55567 11.2102C9.22813 10.6697 8.77717 10.2086 8.2666 9.83885C8.1372 9.7334 7.94375 9.71231 7.80211 9.80552C7.40583 10.056 7.05486 10.376 6.75518 10.7358C6.33808 11.242 6.04647 11.8694 6.01601 12.531C5.98763 12.952 6.0936 13.3814 6.32115 13.737C6.57527 14.1393 6.97701 14.4465 7.43369 14.5806C7.50477 14.5975 7.57377 14.6204 7.64277 14.6441C7.44671 14.6436 7.25248 14.6106 7.05981 14.578C5.91238 14.371 4.84541 13.7612 4.07785 12.8846C3.44751 12.1704 3.01608 11.2821 2.85101 10.3434C2.75286 9.80318 2.75155 9.24938 2.80389 8.70418C2.86794 8.04207 3.02233 7.3896 3.2538 6.76628C3.66491 5.65687 4.31166 4.64535 5.08494 3.75412C5.81553 2.9121 6.65416 2.16356 7.57403 1.53399C7.69588 1.45745 7.81044 1.35642 7.95729 1.33325Z" fill="#27261E"/>
<path d="M7.11039 11.59C7.33769 11.2107 7.65065 10.8878 8.00058 10.6196C8.46898 11.0055 8.88973 11.4814 9.09724 12.06C9.2144 12.3919 9.25528 12.7684 9.12588 13.103C8.98294 13.4842 8.63535 13.7799 8.23543 13.857C7.92273 13.9195 7.58608 13.8523 7.32363 13.6708C7.02213 13.4688 6.82165 13.1241 6.79718 12.7617C6.77036 12.35 6.90106 11.941 7.11039 11.59Z" fill="#27261E"/>
<path d="M7.95729 1.33325H8.04841C8.18901 1.36007 8.32258 1.44339 8.38793 1.57383C8.44365 1.67511 8.43089 1.7941 8.43219 1.90501C8.43167 3.05036 8.43167 4.1957 8.43219 5.34105C9.00916 4.80391 9.58483 4.26574 10.161 3.72809C10.2381 3.65805 10.3099 3.57343 10.4128 3.54219C10.5583 3.4935 10.7307 3.53828 10.8301 3.65649C11.1616 4.03323 11.4719 4.42899 11.7511 4.84635C12.5017 5.95681 13.0289 7.23364 13.1812 8.57087C13.2557 9.22257 13.2531 9.88858 13.1112 10.5314C12.8415 11.7991 12.0773 12.9502 11.02 13.6982C10.2251 14.2635 9.26874 14.6077 8.29264 14.6506C8.66782 14.5767 9.03181 14.422 9.31639 14.1625C9.70251 13.8216 9.9483 13.327 9.98188 12.8127C10.0183 12.2498 9.84467 11.6893 9.55567 11.2102C9.22813 10.6697 8.77717 10.2086 8.2666 9.83885C8.1372 9.7334 7.94375 9.71231 7.80211 9.80552C7.40583 10.056 7.05486 10.376 6.75518 10.7358C6.33808 11.242 6.04647 11.8694 6.01601 12.531C5.98763 12.952 6.0936 13.3814 6.32115 13.737C6.57527 14.1393 6.97701 14.4465 7.43369 14.5806C7.50477 14.5975 7.57377 14.6204 7.64277 14.6441C7.44671 14.6436 7.25248 14.6106 7.05981 14.578C5.91238 14.371 4.84541 13.7612 4.07785 12.8846C3.44751 12.1704 3.01608 11.2821 2.85101 10.3434C2.75286 9.80318 2.75155 9.24938 2.80389 8.70418C2.86794 8.04207 3.02233 7.3896 3.2538 6.76628C3.66491 5.65687 4.31166 4.64535 5.08494 3.75412C5.81553 2.9121 6.65416 2.16356 7.57403 1.53399C7.69588 1.45745 7.81044 1.35642 7.95729 1.33325Z" fill="#27261E"/>
<path d="M7.11039 11.59C7.33769 11.2107 7.65065 10.8878 8.00058 10.6196C8.46898 11.0055 8.88973 11.4814 9.09724 12.06C9.2144 12.3919 9.25528 12.7684 9.12588 13.103C8.98294 13.4842 8.63535 13.7799 8.23543 13.857C7.92273 13.9195 7.58608 13.8523 7.32363 13.6708C7.02213 13.4688 6.82165 13.1241 6.79718 12.7617C6.77036 12.35 6.90106 11.941 7.11039 11.59Z" fill="#27261E"/>
</svg>
