<svg width="21" height="21" viewBox="0 0 21 21" fill="none" xmlns="http://www.w3.org/2000/svg">
<mask id="mask0_1366_398" style="mask-type:luminance" maskUnits="userSpaceOnUse" x="0" y="4" width="21" height="17">
<path fill-rule="evenodd" clip-rule="evenodd" d="M0.5 4.54004H20.0859V20.7216H0.5V4.54004Z" fill="white"/>
</mask>
<g mask="url(#mask0_1366_398)">
<path fill-rule="evenodd" clip-rule="evenodd" d="M5.21553 6.04004C4.77453 6.04004 3.30053 6.21804 2.87753 8.50204L2.10553 14.502C1.85453 16.185 2.04853 17.403 2.68353 18.14C3.31053 18.868 4.43253 19.222 6.11253 19.222H14.4605C15.5085 19.222 16.9395 19.013 17.8035 18.015C18.4895 17.224 18.7255 16.046 18.5055 14.513L17.7265 8.46104C17.3945 6.97004 16.5185 6.04004 15.3945 6.04004H5.21553ZM14.4605 20.722H6.11253C3.96953 20.722 2.47653 20.197 1.54753 19.118C0.614531 18.036 0.302531 16.413 0.620531 14.295L1.39653 8.26904C1.90653 5.50604 3.77153 4.54004 5.21553 4.54004H15.3945C16.8445 4.54004 18.6075 5.50304 19.2025 8.20404L19.9915 14.311C20.2745 16.282 19.9205 17.863 18.9375 18.997C17.9595 20.125 16.4115 20.722 14.4605 20.722Z" fill="#9E9E9E"/>
</g>
<path fill-rule="evenodd" clip-rule="evenodd" d="M14.598 5.82024C14.184 5.82024 13.848 5.48424 13.848 5.07024C13.848 3.10124 12.246 1.50024 10.278 1.50024H10.263C9.32196 1.50024 8.40496 1.87924 7.73996 2.54024C7.07196 3.20524 6.68896 4.12824 6.68896 5.07024C6.68896 5.48424 6.35296 5.82024 5.93896 5.82024C5.52496 5.82024 5.18896 5.48424 5.18896 5.07024C5.18896 3.73124 5.73296 2.42224 6.68096 1.47724C7.62596 0.538244 8.92897 0.000244141 10.26 0.000244141H10.281C13.074 0.000244141 15.348 2.27424 15.348 5.07024C15.348 5.48424 15.012 5.82024 14.598 5.82024Z" fill="#9E9E9E"/>
<path fill-rule="evenodd" clip-rule="evenodd" d="M13.2433 10.3242H13.1973C12.7833 10.3242 12.4473 9.98822 12.4473 9.57422C12.4473 9.16022 12.7833 8.82422 13.1973 8.82422C13.6113 8.82422 13.9703 9.16022 13.9703 9.57422C13.9703 9.98822 13.6573 10.3242 13.2433 10.3242Z" fill="#9E9E9E"/>
<path fill-rule="evenodd" clip-rule="evenodd" d="M7.41219 10.3242H7.36719C6.95319 10.3242 6.61719 9.98822 6.61719 9.57422C6.61719 9.16022 6.95319 8.82422 7.36719 8.82422C7.78119 8.82422 8.14019 9.16022 8.14019 9.57422C8.14019 9.98822 7.82619 10.3242 7.41219 10.3242Z" fill="#9E9E9E"/>
</svg>
