<svg width="72" height="103" viewBox="0 0 72 103" fill="none" xmlns="http://www.w3.org/2000/svg">
<path d="M33.3105 100.43L33.3098 100.429C29.0195 95.8705 20.817 86.5952 13.69 75.0205C6.55696 63.436 0.538118 49.6073 0.538118 35.9301C0.538118 16.4334 16.4335 0.537935 35.9302 0.537935C56.0533 0.537935 72.2781 18.0224 71.4305 38.058C70.8447 51.4231 64.7683 64.8027 57.743 75.9708C50.7229 87.1305 42.7888 96.03 38.555 100.424L38.5499 100.43C37.1488 101.924 34.7117 101.924 33.3105 100.43ZM9.78956 36.0376C9.78956 50.5346 21.5409 62.2859 36.0378 62.2859C50.5362 62.2859 62.2861 50.5331 62.2861 35.9301C62.2861 21.4331 50.5348 9.6818 36.0378 9.6818C21.5394 9.6818 9.78956 21.4346 9.78956 36.0376Z" fill="#FB3333" stroke="#FB3333" stroke-width="1.07575"/>
<mask id="path-2-inside-1_2322_12344" fill="white">
<path d="M35.9297 0C56.3688 0 72.8281 17.7496 71.9678 38.0811C70.7845 65.0823 47.4408 91.9767 38.9424 100.798C37.3288 102.519 34.5316 102.519 32.918 100.798C24.312 91.654 0 63.5764 0 35.9297C0.000173988 16.1362 16.1362 0.000171814 35.9297 0ZM36.0371 10.2197C21.8376 10.22 10.3274 21.73 10.3271 36.0371C10.3271 50.2368 21.8374 61.7478 36.0371 61.748C50.237 61.748 61.748 50.2371 61.748 35.9297C61.7479 21.73 50.2369 10.2197 36.0371 10.2197Z"/>
</mask>
<path d="M35.9297 0C56.3688 0 72.8281 17.7496 71.9678 38.0811C70.7845 65.0823 47.4408 91.9767 38.9424 100.798C37.3288 102.519 34.5316 102.519 32.918 100.798C24.312 91.654 0 63.5764 0 35.9297C0.000173988 16.1362 16.1362 0.000171814 35.9297 0ZM36.0371 10.2197C21.8376 10.22 10.3274 21.73 10.3271 36.0371C10.3271 50.2368 21.8374 61.7478 36.0371 61.748C50.237 61.748 61.748 50.2371 61.748 35.9297C61.7479 21.73 50.2369 10.2197 36.0371 10.2197Z" fill="#FB3333"/>
<path d="M35.9297 0V-1.07575H35.9297L35.9297 0ZM71.9678 38.0811L73.0425 38.1282L73.0426 38.1265L71.9678 38.0811ZM38.9424 100.798L38.1677 100.051L38.1626 100.057L38.1576 100.062L38.9424 100.798ZM32.918 100.798L33.7027 100.062L33.7013 100.061L32.918 100.798ZM0 35.9297L-1.07575 35.9297V35.9297H0ZM36.0371 10.2197V9.14398H36.0371L36.0371 10.2197ZM10.3271 36.0371L9.2514 36.0371V36.0371H10.3271ZM36.0371 61.748L36.0371 62.8238H36.0371V61.748ZM61.748 35.9297H62.8238V35.9297L61.748 35.9297ZM35.9297 0V1.07575C55.737 1.07575 71.7283 18.2955 70.893 38.0356L71.9678 38.0811L73.0426 38.1265C73.9279 17.2037 57.0006 -1.07575 35.9297 -1.07575V0ZM71.9678 38.0811L70.8931 38.034C70.3133 51.2635 64.2921 64.549 57.2877 75.6842C50.2938 86.8026 42.3861 95.6729 38.1677 100.051L38.9424 100.798L39.7171 101.544C43.9972 97.1016 52.0105 88.1142 59.1088 76.8298C66.1966 65.5622 72.4389 51.8999 73.0425 38.1282L71.9678 38.0811ZM38.9424 100.798L38.1576 100.062C36.969 101.33 34.8914 101.33 33.7027 100.062L32.918 100.798L32.1332 101.534C34.1718 103.708 37.6886 103.708 39.7272 101.534L38.9424 100.798ZM32.918 100.798L33.7013 100.061C29.4236 95.5155 21.2481 86.2698 14.1478 74.7383C7.03546 63.1874 1.07575 49.4607 1.07575 35.9297H0H-1.07575C-1.07575 50.0454 5.12053 64.1809 12.3157 75.8664C19.5229 87.5713 27.8064 96.9364 32.1346 101.535L32.918 100.798ZM0 35.9297L1.07575 35.9297C1.07592 16.7303 16.7303 1.07592 35.9297 1.07575L35.9297 0L35.9297 -1.07575C15.542 -1.07557 -1.07557 15.542 -1.07575 35.9297L0 35.9297ZM36.0371 10.2197L36.0371 9.14398C21.2406 9.14424 9.25166 21.1388 9.2514 36.0371L10.3271 36.0371L11.4029 36.0371C11.4031 22.3212 22.4346 11.2957 36.0371 11.2955L36.0371 10.2197ZM10.3271 36.0371H9.2514C9.2514 50.8309 21.2433 62.8235 36.0371 62.8238L36.0371 61.748L36.0371 60.6723C22.4316 60.6721 11.4029 49.6427 11.4029 36.0371H10.3271ZM36.0371 61.748V62.8238C50.834 62.8238 62.8238 50.8283 62.8238 35.9297H61.748H60.6723C60.6723 49.6459 49.64 60.6723 36.0371 60.6723V61.748ZM61.748 35.9297L62.8238 35.9297C62.8236 21.1358 50.831 9.14398 36.0371 9.14398V10.2197V11.2955C49.6428 11.2955 60.6721 22.3241 60.6723 35.9297L61.748 35.9297Z" fill="#FB3333" mask="url(#path-2-inside-1_2322_12344)"/>
<rect x="9.68188" y="8.60608" width="53.7874" height="55.9389" rx="19.3635" fill="#FB3333"/>
<path d="M27.9562 30.0022C22.2002 35.7119 22.2002 44.9697 27.9562 50.6795C32.7473 55.4321 40.0154 56.2279 45.6363 53.0686C47.4919 52.0256 49.8795 51.9837 51.354 53.4464L51.9126 54.0005C53.416 55.4918 53.4101 57.9275 51.7084 59.1192C42.6729 65.4467 30.0923 64.5993 22.0061 56.578C12.9657 47.6103 12.9657 33.0713 22.0061 24.1036C30.0923 16.0824 42.6729 15.235 51.7084 21.5624C53.4101 22.7541 53.416 25.1898 51.9126 26.6812L51.354 27.2352C49.8795 28.698 47.4919 28.6561 45.6363 27.6131C40.0154 24.4537 32.7473 25.2496 27.9562 30.0022Z" fill="white" stroke="white" stroke-width="0.330059"/>
<mask id="mask0_2322_12344" style="mask-type:alpha" maskUnits="userSpaceOnUse" x="0" y="0" width="72" height="103">
<path d="M33.3103 100.43L33.3096 100.429C29.0192 95.8705 20.8167 86.5951 13.6897 75.0204C6.55671 63.436 0.537874 49.6072 0.537874 35.93C0.537874 16.4333 16.4333 0.537874 35.93 0.537874C56.053 0.537874 72.2778 18.0223 71.4302 38.058C70.8445 51.423 64.768 64.8026 57.7427 75.9707C50.7227 87.1305 42.7885 96.0299 38.5547 100.424L38.5497 100.43C37.1486 101.924 34.7114 101.924 33.3103 100.43ZM16.7468 44.3334C13.2562 41.1236 10.9218 37.7704 10.9142 34.4404C10.9402 34.0186 10.9764 33.5997 11.0227 33.1839C11.5187 30.3365 13.6778 27.6105 16.7274 25.0643C20.1956 22.1688 24.691 19.6089 28.7808 17.4736C30.1675 16.7497 31.4999 16.0784 32.7284 15.4594C33.3116 15.1656 33.8713 14.8835 34.4023 14.6133C36.0395 13.7801 37.4161 13.0526 38.3169 12.4523C38.7593 12.1574 39.1368 11.8614 39.3663 11.5676C39.4816 11.4199 39.5951 11.2286 39.6256 11.0019C39.6599 10.7464 39.5805 10.5065 39.4131 10.319C39.2637 10.1517 39.0637 10.0465 38.8713 9.9747C38.6727 9.90058 38.4374 9.84566 38.173 9.80409C37.6442 9.72095 36.9357 9.68174 36.0376 9.68174C22.5507 9.68174 11.4421 19.8519 9.95782 33.0259C9.88027 33.4805 9.83937 33.941 9.83841 34.4071C9.80584 34.9463 9.78931 35.4899 9.78931 36.0376C9.78931 50.5345 21.5406 62.2859 36.0376 62.2859C36.9393 62.2859 37.6567 62.2347 38.1962 62.1255C38.7016 62.0231 39.1895 61.8444 39.4523 61.4694C39.7695 61.0169 39.6196 60.5239 39.3995 60.169C39.1792 59.8136 38.8085 59.4471 38.362 59.0766C37.4591 58.3275 36.0806 57.4299 34.441 56.4173C33.6465 55.9267 32.7569 55.3888 31.8188 54.8215C30.8518 54.2367 29.8331 53.6208 28.8139 52.9932C24.7213 50.4735 20.2209 47.5279 16.7468 44.3334Z" fill="#FB3333" stroke="#FB3333" stroke-width="1.07575"/>
</mask>
<g mask="url(#mask0_2322_12344)">
<path d="M81.5367 65.3964C81.8097 65.1924 82.0242 64.9455 82.1894 64.6783C82.348 64.4071 82.4655 64.1019 82.5177 63.7652C82.5985 63.2508 82.5386 62.7101 82.3128 62.2414C81.9641 61.5178 81.2653 61.027 80.5528 60.6583C75.7152 58.1553 74.1865 57.3633 69.4511 54.6626C66.9659 53.2447 64.4103 51.9899 61.9291 50.5651C59.6427 49.2529 57.2833 47.9013 55.2378 46.2246C53.9259 45.1487 52.6454 43.9214 52.1146 42.2661C51.9708 41.8191 51.8797 41.3533 51.6958 40.922C50.7543 38.7099 47.6208 37.7196 45.6074 36.7419C43.5105 35.7216 39.8369 33.7546 37.5081 32.5948C37.2129 32.448 36.8544 32.5545 36.6859 32.8397C36.6832 32.8442 36.6805 32.8487 36.6778 32.8532C36.5011 33.152 36.5972 33.5381 36.8964 33.7165L46.122 39.2635C46.4103 39.4369 46.5033 39.8103 46.3298 40.0987C46.1564 40.3871 45.783 40.4801 45.4946 40.3066L36.2819 34.7658C35.9822 34.5855 35.5908 34.683 35.4133 34.9858L35.3609 35.0755C35.1843 35.3742 35.2822 35.7598 35.5791 35.9369L44.7918 41.4778C45.0802 41.6512 45.1732 42.0246 44.9997 42.313C44.8263 42.6014 44.4529 42.6944 44.1645 42.5209L34.9518 36.9801C34.6544 36.8012 34.2679 36.8955 34.0886 37.1911L34.0339 37.2794C33.8514 37.5777 33.9471 37.9696 34.2467 38.1498L43.4613 43.6902C43.7497 43.8637 43.8426 44.2371 43.6692 44.5255C43.4957 44.8139 43.1223 44.9068 42.8339 44.7334L33.6075 39.1827C33.3101 39.0038 32.9236 39.0981 32.7425 39.3942C32.7398 39.3987 32.7371 39.4032 32.7344 39.4077C32.5632 39.6898 32.6349 40.055 32.9035 40.2488C35.0197 41.7624 38.4787 44.0834 40.3631 45.4594C42.1724 46.7793 44.516 49.0831 46.9094 48.8782C47.3765 48.8386 47.8312 48.7024 48.2929 48.6182C50.0039 48.3111 51.6883 48.867 53.2534 49.5215C55.6952 50.5422 57.9933 51.9933 60.224 53.3978C62.6455 54.9216 64.9518 56.591 67.3693 58.1217C71.9724 61.0374 73.3909 62.0178 77.8692 65.118C78.5288 65.5746 79.29 65.9618 80.0925 65.9306C80.6142 65.91 81.1199 65.7094 81.5363 65.3969L81.5367 65.3964Z" fill="white"/>
</g>
</svg>
