<svg width="46" height="46" viewBox="0 0 46 46" fill="none" xmlns="http://www.w3.org/2000/svg">
<path d="M45.1079 23.1772C45.1079 35.3275 35.2582 45.1772 23.1079 45.1772C10.9576 45.1772 1.10791 35.3275 1.10791 23.1772C1.10791 11.027 10.9576 1.17725 23.1079 1.17725C35.2582 1.17725 45.1079 11.027 45.1079 23.1772Z" fill="white" stroke="black"/>
<path fill-rule="evenodd" clip-rule="evenodd" d="M24.2663 25.8315L21.4217 22.9055L15.9414 25.9052L21.9484 19.5956L24.793 22.5216L30.271 19.5219L24.2652 25.8315H24.2663ZM23.1074 12.1772C17.0326 12.1772 12.1079 16.7356 12.1079 22.3599C12.1079 25.5587 13.7013 28.4132 16.1948 30.2799V34.1772L19.9483 32.1158C20.9484 32.393 22.0095 32.5426 23.1074 32.5426C29.1832 32.5426 34.1079 27.9831 34.1079 22.3599C34.1079 16.7356 29.1832 12.1772 23.1074 12.1772Z" fill="black"/>
</svg>
