<svg width="20" height="20" viewBox="0 0 20 20" fill="none" xmlns="http://www.w3.org/2000/svg">
<path d="M13.8873 18.3247H6.11272C4.90729 18.3996 3.7235 17.9817 2.83274 17.1676C2.01857 16.276 1.60067 15.0922 1.67559 13.8876V6.11231C1.60067 4.90772 2.01774 3.72394 2.83191 2.83236C3.7235 2.0182 4.90729 1.6003 6.11272 1.67523H13.8873C15.091 1.6003 16.274 2.01737 17.1648 2.83153C17.9781 3.72394 18.3968 4.90689 18.3252 6.11231V13.8876C18.3993 15.0922 17.9823 16.276 17.1681 17.1676C16.2765 17.9817 15.0927 18.3996 13.8873 18.3247Z" fill="black"/>
<path d="M13.8873 18.3247H6.11272C4.90729 18.3996 3.7235 17.9817 2.83274 17.1676C2.01857 16.276 1.60067 15.0922 1.67559 13.8876V6.11231C1.60067 4.90772 2.01774 3.72394 2.83191 2.83236C3.7235 2.0182 4.90729 1.6003 6.11272 1.67523H13.8873C15.091 1.6003 16.274 2.01737 17.1648 2.83153C17.9781 3.72394 18.3968 4.90689 18.3252 6.11231V13.8876C18.3993 15.0922 17.9823 16.276 17.1681 17.1676C16.2765 17.9817 15.0927 18.3996 13.8873 18.3247" stroke="white" stroke-width="1.5"/>
<path d="M14.2124 8.66459L8.7518 14.1524C8.46781 14.4288 8.09458 14.5833 7.70511 14.5833H5.79834C5.69286 14.5833 5.5955 14.5426 5.52247 14.4695C5.44945 14.3963 5.41699 14.2987 5.41699 14.193L5.46568 12.2662C5.47379 11.8841 5.62795 11.5264 5.89571 11.2581L9.76604 7.38004C9.83095 7.315 9.94454 7.315 10.0095 7.38004L11.3669 8.73207C11.4562 8.82069 11.586 8.87841 11.7239 8.87841C12.0241 8.87841 12.2594 8.63451 12.2594 8.34183C12.2594 8.19549 12.2026 8.06541 12.1134 7.96785C12.089 7.93533 10.7965 6.64833 10.7965 6.64833C10.7154 6.56703 10.7154 6.42882 10.7965 6.34752L11.3401 5.79467C11.8432 5.29061 12.6546 5.29061 13.1576 5.79467L14.2124 6.85159C14.7074 7.34752 14.7074 8.16053 14.2124 8.66459Z" fill="white"/>
</svg>
