<svg width="36" height="36" viewBox="0 0 36 36" fill="none" xmlns="http://www.w3.org/2000/svg">
<path d="M22.8374 18.5625L11.1749 6.9C10.9499 6.675 10.7874 6.444 10.6874 6.207C10.5874 5.97 10.5374 5.7135 10.5374 5.4375C10.5374 4.8125 10.7874 4.25 11.2874 3.75C11.7874 3.25 12.3999 3 13.1249 3H22.2749C23.0749 3 23.7189 3.3125 24.2069 3.9375C24.6949 4.5625 24.8384 5.25 24.6374 6L22.4999 13.5H24.1874C25.1124 13.5 25.7814 13.9 26.1944 14.7C26.6074 15.5 26.5634 16.275 26.0624 17.025L25.1249 18.375C24.8499 18.75 24.4874 18.9625 24.0374 19.0125C23.5874 19.0625 23.1874 18.9125 22.8374 18.5625ZM28.6124 32.85L20.6249 24.9L17.0624 30.0375C16.9374 30.2375 16.7559 30.3815 16.5179 30.4695C16.2799 30.5575 16.0364 30.5635 15.7874 30.4875C15.5384 30.4115 15.3444 30.274 15.2054 30.075C15.0664 29.876 14.9979 29.651 14.9999 29.4V21H13.4999C12.6749 21 11.9689 20.7065 11.3819 20.1195C10.7949 19.5325 10.5009 18.826 10.4999 18V14.775L3.11238 7.3875C2.81238 7.0875 2.66838 6.7315 2.68038 6.3195C2.69238 5.9075 2.84888 5.551 3.14988 5.25C3.45088 4.949 3.80738 4.799 4.21938 4.8C4.63138 4.801 4.98738 4.951 5.28738 5.25L30.7499 30.75C31.0499 31.05 31.1999 31.4 31.1999 31.8C31.1999 32.2 31.0499 32.55 30.7499 32.85C30.4499 33.15 30.0939 33.3 29.6819 33.3C29.2699 33.3 28.9134 33.15 28.6124 32.85Z" fill="white"/>
</svg>
