<svg width="36" height="36" viewBox="0 0 36 36" fill="none" xmlns="http://www.w3.org/2000/svg">
<path d="M15.7875 30.4875C15.5625 30.4125 15.375 30.2815 15.225 30.0945C15.075 29.9075 15 29.676 15 29.4V21H13.5C12.675 21 11.969 20.7065 11.382 20.1195C10.795 19.5325 10.501 18.826 10.5 18V6C10.5 5.175 10.794 4.469 11.382 3.882C11.97 3.295 12.676 3.001 13.5 3H22.275C23.075 3 23.719 3.3125 24.207 3.9375C24.695 4.5625 24.8385 5.25 24.6375 6L22.5 13.5H24.1875C25.0875 13.5 25.7565 13.9 26.1945 14.7C26.6325 15.5 26.5885 16.275 26.0625 17.025L17.0625 30.0375C16.9125 30.2625 16.719 30.4125 16.482 30.4875C16.245 30.5625 16.0135 30.5625 15.7875 30.4875Z" fill="white"/>
</svg>
