<svg width="36" height="36" viewBox="0 0 36 36" fill="none" xmlns="http://www.w3.org/2000/svg">
<path d="M25.4625 13.05L24.525 15.7875C24.45 15.9875 24.319 16.1565 24.132 16.2945C23.945 16.4325 23.7385 16.501 23.5125 16.5C23.1375 16.5 22.844 16.344 22.632 16.032C22.42 15.72 22.376 15.3885 22.5 15.0375L26.55 4.2C26.675 3.85 26.894 3.575 27.207 3.375C27.52 3.175 27.851 3.075 28.2 3.075C28.575 3.075 28.919 3.194 29.232 3.432C29.545 3.67 29.7635 3.9635 29.8875 4.3125L33.975 15.075C34.1 15.425 34.0625 15.75 33.8625 16.05C33.6625 16.35 33.375 16.5 33 16.5C32.775 16.5 32.5625 16.4315 32.3625 16.2945C32.1625 16.1575 32.025 15.976 31.95 15.75L31.0125 13.05H25.4625ZM26.1375 11.1H30.2625L28.275 5.475H28.2L26.1375 11.1ZM8.2875 30.4875C8.0625 30.4125 7.875 30.2815 7.725 30.0945C7.575 29.9075 7.5 29.676 7.5 29.4V21H6C5.175 21 4.469 20.7065 3.882 20.1195C3.295 19.5325 3.001 18.826 3 18V6C3 5.175 3.294 4.469 3.882 3.882C4.47 3.295 5.176 3.001 6 3H14.775C15.575 3 16.219 3.3125 16.707 3.9375C17.195 4.5625 17.3385 5.25 17.1375 6L15 13.5H16.6875C17.5875 13.5 18.2565 13.9 18.6945 14.7C19.1325 15.5 19.0885 16.275 18.5625 17.025L9.5625 30.0375C9.4125 30.2625 9.219 30.4125 8.982 30.4875C8.745 30.5625 8.5135 30.5625 8.2875 30.4875Z" fill="white"/>
</svg>
