<svg width="23" height="24" viewBox="0 0 23 24" fill="none" xmlns="http://www.w3.org/2000/svg">
<path d="M13.9737 22V18.676L14.8092 18.8254C15.5309 18.9542 16.269 18.7362 16.8272 18.2293C17.3854 17.7224 17.7071 16.978 17.7069 16.194V14.0088L18.4826 13.8008C18.8751 13.6955 19.1953 13.3923 19.3412 12.988C19.4871 12.5836 19.4404 12.1284 19.216 11.7676L17.7069 9.34156V8.67481C17.7069 4.74011 13.9912 1.5975 9.56193 2.042C6.32306 2.35724 3.64782 4.8842 2.94947 8.28795C2.25112 11.6917 3.69055 15.1881 6.50733 16.93V21.9973" stroke="#443A39" stroke-width="1.5" stroke-linecap="round" stroke-linejoin="round"/>
<path d="M8.22461 8.66861C8.22485 7.31238 9.17488 6.17232 10.4324 6.01918C11.6899 5.86605 12.8544 6.74862 13.1387 8.07021C13.4229 9.3918 12.7362 10.7315 11.543 11.1836C11.0456 11.372 10.7131 11.8761 10.7134 12.4415V12.6691" stroke="#443A39" stroke-width="1.5" stroke-linecap="round" stroke-linejoin="round"/>
<path d="M10.7144 15.334C10.5426 15.334 10.4033 15.4832 10.4033 15.6674C10.4033 15.8515 10.5426 16.0007 10.7144 16.0007C10.8862 16.0007 11.0255 15.8515 11.0255 15.6674C11.0255 15.4832 10.8862 15.334 10.7144 15.334V15.334" stroke="#443A39" stroke-width="1.5" stroke-linecap="round" stroke-linejoin="round"/>
</svg>
