<svg width="10" height="10" viewBox="0 0 10 10" fill="none" xmlns="http://www.w3.org/2000/svg">
<path d="M5.7208 1.46235L6.45413 2.92902C6.55413 3.13319 6.8208 3.32902 7.0458 3.36652L8.37496 3.58735C9.22496 3.72902 9.42496 4.34569 8.81246 4.95402L7.77913 5.98735C7.60413 6.16235 7.50829 6.49985 7.56246 6.74152L7.8583 8.02069C8.09163 9.03319 7.55413 9.42485 6.6583 8.89569L5.41246 8.15819C5.18746 8.02485 4.81663 8.02485 4.58746 8.15819L3.34163 8.89569C2.44996 9.42485 1.9083 9.02902 2.14163 8.02069L2.43746 6.74152C2.49163 6.49985 2.3958 6.16235 2.2208 5.98735L1.18746 4.95402C0.579129 4.34569 0.774962 3.72902 1.62496 3.58735L2.95413 3.36652C3.17496 3.32902 3.44163 3.13319 3.54163 2.92902L4.27496 1.46235C4.67496 0.66652 5.32496 0.66652 5.7208 1.46235Z" stroke="#FECD4C" stroke-width="0.625" stroke-linecap="round" stroke-linejoin="round"/>
</svg>
