<svg width="19" height="18" viewBox="0 0 19 18" fill="none" xmlns="http://www.w3.org/2000/svg">
<path d="M18.0801 16.3699L15.0901 8.00988C14.8801 7.45988 14.4101 7.11988 13.8701 7.11988C13.3301 7.11988 12.8701 7.45988 12.6401 8.02988L9.66012 16.3699C9.62336 16.4632 9.60568 16.5629 9.60813 16.6631C9.61057 16.7634 9.6331 16.8621 9.67437 16.9535C9.71565 17.0449 9.77483 17.1271 9.84841 17.1952C9.922 17.2633 10.0085 17.316 10.1028 17.3501C10.1971 17.3842 10.2973 17.3991 10.3974 17.3938C10.4976 17.3885 10.5956 17.3632 10.6858 17.3194C10.776 17.2755 10.8565 17.214 10.9225 17.1385C10.9885 17.0631 11.0387 16.9751 11.0701 16.8799L11.6901 15.1499H16.0401L16.6601 16.8799C16.7701 17.1899 17.0601 17.3799 17.3701 17.3799C17.4501 17.3799 17.5401 17.3699 17.6201 17.3399C17.807 17.2722 17.9594 17.133 18.0438 16.953C18.1282 16.773 18.1377 16.5669 18.0701 16.3799L18.0801 16.3699ZM12.2401 13.6399L13.8801 9.04988L15.5201 13.6399H12.2401ZM9.69012 4.84988C7.43012 8.41988 5.39012 10.5799 2.91012 12.0199C2.82542 12.0691 2.73184 12.1012 2.63474 12.1143C2.53764 12.1274 2.43891 12.1212 2.34419 12.0962C2.24947 12.0711 2.16062 12.0276 2.08271 11.9682C2.0048 11.9088 1.93935 11.8346 1.89012 11.7499C1.84006 11.6654 1.80731 11.5718 1.7938 11.4745C1.78028 11.3772 1.78626 11.2782 1.8114 11.1833C1.83653 11.0884 1.8803 10.9994 1.94017 10.9215C2.00004 10.8437 2.07481 10.7785 2.16012 10.7299C4.26012 9.50988 5.98012 7.75988 7.91012 4.85988H1.62012C1.21012 4.85988 0.870117 4.51988 0.870117 4.10988C0.870117 3.69988 1.21012 3.35988 1.62012 3.35988H5.37012V1.37988C5.37012 0.969883 5.71012 0.629883 6.12012 0.629883C6.53012 0.629883 6.87012 0.969883 6.87012 1.37988V3.35988H10.6201C11.0301 3.35988 11.3701 3.69988 11.3701 4.10988C11.3701 4.51988 11.0301 4.85988 10.6201 4.85988H9.68012L9.69012 4.84988ZM9.73012 12.1199C9.60012 12.1199 9.47012 12.0899 9.35012 12.0199C8.70012 11.6399 8.07012 11.2199 7.48012 10.7799C7.32099 10.6605 7.21579 10.4829 7.18766 10.2859C7.15952 10.089 7.21077 9.88901 7.33012 9.72988C7.44946 9.57075 7.62714 9.46555 7.82405 9.43742C8.02096 9.40929 8.22099 9.46054 8.38012 9.57988C8.92012 9.98988 9.51012 10.3699 10.1101 10.7199C10.2522 10.8035 10.3628 10.9315 10.425 11.0842C10.4872 11.2369 10.4975 11.4058 10.4543 11.5649C10.4111 11.724 10.3168 11.8645 10.186 11.9647C10.0551 12.065 9.89497 12.1195 9.73012 12.1199Z" fill="#443A39"/>
</svg>
