<svg width="52" height="52" viewBox="0 0 52 52" fill="none" xmlns="http://www.w3.org/2000/svg">
<rect width="52" height="52" rx="26" fill="black" fill-opacity="0.08"/>
<rect x="8" y="8" width="36" height="36" rx="18" fill="black"/>
<path fill-rule="evenodd" clip-rule="evenodd" d="M18.9167 24.5985C18.9167 20.7652 22.12 17.667 25.9946 17.667C29.8802 17.667 33.0834 20.7652 33.0834 24.5985C33.0834 26.5301 32.3809 28.3233 31.2247 29.8433C29.9491 31.5199 28.3769 32.9807 26.6072 34.1273C26.2022 34.3923 25.8366 34.4123 25.3921 34.1273C23.6124 32.9807 22.0402 31.5199 20.7755 29.8433C19.6184 28.3233 18.9167 26.5301 18.9167 24.5985ZM23.6619 24.8143C23.6619 26.0984 24.7098 27.1084 25.9946 27.1084C27.2803 27.1084 28.3382 26.0984 28.3382 24.8143C28.3382 23.5402 27.2803 22.481 25.9946 22.481C24.7098 22.481 23.6619 23.5402 23.6619 24.8143Z" fill="white"/>
</svg>
