<svg width="17" height="21" viewBox="0 0 17 21" fill="none" xmlns="http://www.w3.org/2000/svg">
<path d="M12.978 6.62988H4.5C2.84315 6.62988 1.5 7.97303 1.5 9.62988V16.4999C1.5 18.1567 2.84315 19.4999 4.5 19.4999H12.978C14.6349 19.4999 15.978 18.1567 15.978 16.4999V9.62988C15.978 7.97303 14.6349 6.62988 12.978 6.62988Z" stroke="#443A39" stroke-width="1.5" stroke-linecap="round" stroke-linejoin="round"/>
<path d="M11.956 6.63V4.217C11.956 3.3638 11.617 2.54554 11.0137 1.94224C10.4104 1.33893 9.59217 1 8.73897 1C7.88577 1 7.06752 1.33893 6.46421 1.94224C5.86091 2.54554 5.52197 3.3638 5.52197 4.217V6.63" stroke="#443A39" stroke-width="1.5" stroke-linecap="round" stroke-linejoin="round"/>
<path d="M8.73901 14.5654C9.56744 14.5654 10.239 13.8939 10.239 13.0654C10.239 12.237 9.56744 11.5654 8.73901 11.5654C7.91059 11.5654 7.23901 12.237 7.23901 13.0654C7.23901 13.8939 7.91059 14.5654 8.73901 14.5654Z" fill="#443A39"/>
</svg>
