<svg width="52" height="33" viewBox="0 0 52 33" fill="none" xmlns="http://www.w3.org/2000/svg">
<path d="M51.9893 16.1048C51.9843 19.2844 51.0367 22.3911 49.2664 25.0323C47.496 27.6735 44.9824 29.7305 42.0431 30.9433C39.1039 32.1561 35.8711 32.4703 32.7534 31.8461C29.6356 31.222 26.7729 29.6875 24.5271 27.4366C22.2813 25.1858 20.7533 22.3196 20.1361 19.2005C19.519 16.0814 19.8404 12.8493 21.0598 9.9128C22.2793 6.97632 24.3419 4.46729 26.987 2.70287C29.6322 0.938453 32.741 -0.00213598 35.9206 3.64224e-06C38.034 0.00118919 40.1265 0.418745 42.0784 1.22882C44.0304 2.03889 45.8037 3.2256 47.2969 4.72117C48.7901 6.21673 49.974 7.99183 50.781 9.94507C51.588 11.8983 52.0023 13.9914 52.0001 16.1048H51.9893Z" fill="#F79F1A"/>
<path d="M32.159 16.1048C32.154 19.2844 31.2064 22.3911 29.4361 25.0323C27.6657 27.6735 25.152 29.7305 22.2128 30.9433C19.2736 32.1561 16.0408 32.4703 12.9231 31.8461C9.80532 31.222 6.94262 29.6875 4.69682 27.4366C2.45103 25.1858 0.922967 22.3196 0.305808 19.2005C-0.311351 16.0814 0.0100973 12.8493 1.22952 9.9128C2.44894 6.97632 4.51159 4.46729 7.15672 2.70287C9.80185 0.938453 12.9107 -0.00213598 16.0903 3.64224e-06C18.2037 0.00118919 20.2962 0.418745 22.2481 1.22882C24.2001 2.03889 25.9733 3.2256 27.4665 4.72117C28.9598 6.21673 30.1437 7.99183 30.9507 9.94507C31.7577 11.8983 32.172 13.9914 32.1698 16.1048H32.159Z" fill="#EA001B"/>
<path d="M26.0004 3.42773C24.0816 4.93716 22.5305 6.86243 21.464 9.05845C20.3974 11.2545 19.8433 13.6639 19.8433 16.1052C19.8433 18.5466 20.3974 20.956 21.464 23.152C22.5305 25.3481 24.0816 27.2733 26.0004 28.7828C27.9219 27.2753 29.4751 25.3502 30.5422 23.1534C31.6093 20.9566 32.1623 18.5457 32.1594 16.1034C32.1626 13.6616 31.6097 11.2512 30.5425 9.0549C29.4754 6.85863 27.922 4.93424 26.0004 3.42773V3.42773Z" fill="#FF5F01"/>
</svg>
