<svg width="25" height="24" viewBox="0 0 25 24" fill="none" xmlns="http://www.w3.org/2000/svg">
<path d="M19.2501 9.71V9.005C19.2501 5.136 16.2261 2 12.5001 2C8.77406 2 5.75006 5.136 5.75006 9.005V9.71C5.75127 10.5516 5.51111 11.3758 5.05806 12.085L3.95006 13.81C2.93906 15.385 3.71106 17.526 5.47006 18.024C10.0664 19.3257 14.9338 19.3257 19.5301 18.024C21.2891 17.526 22.0611 15.385 21.0501 13.811L19.9421 12.086C19.4887 11.3769 19.2482 10.5527 19.2491 9.711L19.2501 9.71Z" stroke="#443A39" stroke-width="1.5"/>
<path d="M8 19C8.655 20.748 10.422 22 12.5 22C14.578 22 16.345 20.748 17 19" stroke="#443A39" stroke-width="1.5" stroke-linecap="round"/>
</svg>
