<svg width="375" height="404" viewBox="0 0 375 404" fill="none" xmlns="http://www.w3.org/2000/svg">
<path d="M314.421 342.765C231.63 390.564 112.377 358.651 65.2702 277.059C18.1631 195.467 17.1572 114.842 99.9481 67.0428C182.739 19.2435 243.737 48.4679 290.844 130.06C337.951 211.651 397.212 294.965 314.421 342.765Z" fill="#FB6A6A" fill-opacity="0.21"/>
<path d="M337.188 95.1112C325.35 84.878 324.425 64.0914 335.101 51.7407C345.777 39.39 358.631 34.3927 370.469 44.626C382.308 54.8592 380.716 66.2657 370.039 78.6164C359.363 90.9671 349.026 105.344 337.188 95.1112Z" fill="#FB6A6A" fill-opacity="0.21"/>
<path d="M370.326 336.295C381.391 347.36 377.225 371.739 361.815 387.149C346.406 402.558 325.951 404.817 319.273 398.431C312.596 392.045 312.913 373.815 328.323 358.406C343.732 342.996 359.261 325.23 370.326 336.295Z" fill="#FB6A6A" fill-opacity="0.21"/>
<path d="M8.40607 276.436C23.521 272.386 42.5511 288.184 48.1914 309.234C53.8317 330.284 45.5604 349.127 36.6909 351.717C27.8214 354.307 12.193 344.917 6.55274 323.867C0.912466 302.818 -6.70889 280.486 8.40607 276.436Z" fill="#FB6A6A" fill-opacity="0.21"/>
<path d="M89.8301 124.575L138.612 198.346C138.612 198.346 166.228 196.654 176.717 181.486L151.001 97.394C151.001 97.394 108.796 120.626 89.8301 124.575Z" fill="#BA5F49"/>
<g style="mix-blend-mode:multiply" opacity="0.75">
<path d="M154.315 107.957L151.068 97.3418C151.068 97.3418 108.863 120.574 89.8973 124.523L100.265 140.206C122.474 134.609 135.201 127.183 154.315 107.957Z" fill="#8F5243"/>
</g>
<path d="M157.423 143.06C153.163 134.053 142.134 130.332 132.789 134.75C123.444 139.167 119.322 150.049 123.581 159.056C127.841 168.063 138.87 171.783 148.215 167.366C157.56 162.949 161.683 152.067 157.423 143.06Z" fill="#CCB1B1"/>
<path d="M153.234 144.587C154.739 147.975 154.841 151.821 153.517 155.283C152.193 158.745 149.551 161.54 146.171 163.057C144.534 163.914 142.741 164.431 140.899 164.577C139.057 164.722 137.204 164.493 135.453 163.904C133.701 163.314 132.087 162.376 130.707 161.146C129.327 159.916 128.211 158.42 127.424 156.747C126.638 155.074 126.198 153.26 126.131 151.413C126.064 149.566 126.372 147.725 127.036 146.001C127.699 144.276 128.705 142.704 129.993 141.379C131.28 140.054 132.823 139.004 134.527 138.291C137.843 136.656 141.672 136.4 145.178 137.579C148.683 138.759 151.58 141.279 153.234 144.587Z" fill="#F0E1DD"/>
<path d="M136.617 156.734C136.324 155.689 136.343 154.582 136.672 153.548C137.001 152.514 137.624 151.599 138.467 150.915C139.468 149.868 140.854 149.281 141.848 148.295C142.842 147.308 142.608 145.783 142.418 144.387C142.24 143.209 141.996 142.043 141.686 140.893C138.489 141.097 135.146 144.012 133.607 148.346C131.719 153.626 133.205 159 136.94 160.329C137.42 160.496 137.922 160.59 138.43 160.609C137.678 159.392 137.07 158.092 136.617 156.734Z" fill="#8F4B46"/>
<path d="M143.748 141.109C143.977 142.033 144.176 142.989 144.346 143.976C144.611 144.88 144.668 145.832 144.511 146.761C144.353 147.689 143.987 148.57 143.439 149.336C141.971 150.933 138.419 152.251 138.286 154.872C138.464 156.854 139.249 158.732 140.533 160.251C142.097 159.629 143.5 158.663 144.638 157.424C145.777 156.186 146.622 154.706 147.111 153.096C148.952 147.825 147.48 142.468 143.748 141.109Z" fill="#8F4B46"/>
<g style="mix-blend-mode:screen">
<path d="M166.346 185.597C167.682 184.562 169.305 183.304 170.962 182.02C165.955 168.193 149.694 123.153 144.185 107.279C141.573 108.736 138.877 110.039 136.113 111.179C141.841 126.532 158.513 170.008 165.486 186.129C165.822 186.003 166.089 185.824 166.346 185.597Z" fill="#8F524D"/>
</g>
<g style="mix-blend-mode:multiply" opacity="0.55">
<path d="M132.204 155.091C124.001 147.37 117.204 137.936 109.886 129.366C108.176 127.455 106.603 125.426 105.18 123.293C101.627 124.688 97.9728 125.809 94.2489 126.647L138.917 194.481C138.917 194.481 163.865 193.152 173.335 179.288L170.45 169.908C156.618 170.881 143.053 165.284 132.204 155.091Z" fill="#8B4B3A"/>
</g>
<g style="mix-blend-mode:multiply" opacity="0.55">
<path d="M112.421 120.903C109.79 122.048 104.206 123.642 101.739 124.579C109.377 137.612 143.632 192.289 144.608 193.861C147.756 193.317 150.865 192.571 153.918 191.628C151.078 187.196 114.059 124.345 112.421 120.903Z" fill="#A75640"/>
</g>
<g style="mix-blend-mode:screen">
<path d="M152.444 129.984C152.713 130.893 152.707 131.861 152.428 132.767C152.148 133.673 151.608 134.476 150.874 135.076C150.14 135.675 149.245 136.044 148.302 136.137C147.358 136.23 146.409 136.042 145.571 135.597C144.734 135.152 144.047 134.47 143.595 133.636C143.144 132.802 142.949 131.854 143.034 130.91C143.119 129.966 143.482 129.068 144.075 128.329C144.669 127.59 145.468 127.043 146.371 126.757C146.982 126.57 147.623 126.504 148.259 126.565C148.895 126.626 149.512 126.811 150.076 127.111C150.64 127.411 151.14 127.819 151.546 128.312C151.952 128.805 152.257 129.373 152.444 129.984Z" fill="#B28784"/>
</g>
<g style="mix-blend-mode:screen">
<path d="M151.849 121.185C151.98 121.719 151.952 122.279 151.769 122.797C151.586 123.315 151.256 123.769 150.819 124.102C150.382 124.435 149.857 124.633 149.309 124.672C148.761 124.712 148.214 124.59 147.733 124.323C147.253 124.055 146.861 123.654 146.606 123.167C146.351 122.68 146.243 122.13 146.295 121.583C146.348 121.036 146.56 120.516 146.903 120.087C147.247 119.659 147.708 119.34 148.231 119.17C148.601 119.062 148.988 119.029 149.371 119.072C149.754 119.115 150.124 119.234 150.461 119.421C150.797 119.609 151.093 119.861 151.332 120.164C151.57 120.467 151.746 120.814 151.849 121.185Z" fill="#B28784"/>
</g>
<path d="M83.2281 120.107L83.4492 131.741C83.4492 131.741 103.656 132.325 127.228 118.85C150.799 105.375 159.245 97.3131 159.245 97.3131L150.674 87.1962C150.674 87.1962 128.213 84.2969 83.2281 120.107Z" fill="#F2F2F2"/>
<g style="mix-blend-mode:screen" opacity="0.9">
<path d="M92.3479 125.765C92.6768 121.655 93.2297 117.566 94.0041 113.516L94.2805 111.813C90.8075 114.315 87.0995 117.107 83.2673 120.158L83.449 131.741C86.19 131.738 88.927 131.536 91.6382 131.134C91.7842 129.333 92.0211 127.541 92.3479 125.765Z" fill="#F2F2F2"/>
</g>
<g style="mix-blend-mode:screen" opacity="0.9">
<path d="M132.264 115.922C152.009 104.248 159.211 97.3394 159.211 97.3394L150.674 87.1963C146.727 87.0322 142.781 87.5363 139.003 88.6873C137.297 97.834 134.471 106.793 132.264 115.922Z" fill="#F2F2F2"/>
</g>
<path d="M83.2279 120.107L83.449 131.741C83.449 131.741 103.656 132.325 127.228 118.85C150.799 105.375 159.245 97.313 159.245 97.313L150.674 87.1961C150.674 87.1961 131.985 109.694 83.2279 120.107Z" fill="#DEDEDE"/>
<g style="mix-blend-mode:screen" opacity="0.65">
<path d="M140.352 96.2243C138.07 97.9931 135.266 99.7871 132.049 101.712C133.265 105.236 134.855 108.824 135.705 111.387C135.921 112.086 136.155 112.771 136.424 113.537C141.001 110.748 144.757 108.298 147.834 106.157C145.108 103.027 142.608 99.7079 140.352 96.2243Z" fill="#C7CBC9"/>
</g>
<g style="mix-blend-mode:multiply" opacity="0.35">
<path d="M112.99 111.094C104.979 114.315 96.7416 116.943 88.3446 118.958C88.3908 119.436 88.437 119.915 88.4532 120.39C88.6241 124.102 88.4348 127.768 88.9134 131.459C100.224 130.241 111.234 127.051 121.442 122.034C117.475 119.442 114.497 115.587 112.99 111.094Z" fill="#8F838D"/>
</g>
<path d="M90.6785 104.126L92.3389 115.592C102.625 113.264 112.52 109.462 121.718 104.303C137.113 95.6754 141.167 90.9902 141.167 90.9902L134.866 82.3359C134.866 82.3359 123.032 81.3815 106.297 91.3181C100.46 94.7549 95.1917 99.0755 90.6785 104.126Z" fill="#F2F2F2"/>
<g style="mix-blend-mode:screen" opacity="0.9">
<path d="M134.547 85.9404C134.831 85.5037 135.089 85.0332 135.347 84.5627C135.516 84.2092 135.738 83.8827 136.003 83.5938L134.941 82.2237C132.614 82.151 130.287 82.3466 128.005 82.8065C127.898 84.3789 127.757 85.9775 127.576 87.5253C127.396 89.0731 127.196 90.527 126.948 92.1272C129.609 90.2269 132.147 88.1605 134.547 85.9404Z" fill="#F2F2F2"/>
</g>
<g style="mix-blend-mode:screen" opacity="0.9">
<path d="M115.568 98.6722C116.682 98.1884 117.773 97.6407 118.847 97.1062C118.252 96.2745 117.965 95.2623 118.035 94.2428C118.174 91.2105 118.715 88.1378 119.108 85.1529C117.768 85.6231 116.356 86.1758 114.954 86.7754C113.987 91.0445 113.359 95.4025 112.688 99.7398C113.591 99.4733 114.586 99.0812 115.568 98.6722Z" fill="#F2F2F2"/>
</g>
<g style="mix-blend-mode:screen" opacity="0.9">
<path d="M95.4902 104.54C95.6738 103.892 95.8774 103.247 96.101 102.604C96.5275 100.92 96.971 99.2225 97.4406 97.5589C95.0079 99.5564 92.7459 101.753 90.678 104.126L90.9267 106.019C92.4285 105.477 93.9397 104.983 95.4902 104.54Z" fill="#F2F2F2"/>
</g>
<path d="M117.168 94.1023C108.892 98.4618 100.088 101.736 90.9734 103.844L90.6522 104.093L92.3388 115.592C102.625 113.264 112.52 109.462 121.718 104.303C137.113 95.6754 141.167 90.9903 141.167 90.9903L134.958 82.4544C129.405 86.8846 123.449 90.7843 117.168 94.1023Z" fill="#DEDEDE"/>
<g style="mix-blend-mode:screen" opacity="0.65">
<path d="M128.483 87.2286C126.714 88.4373 125.046 89.5674 123.296 90.6261C124.698 94.0067 126.547 97.2306 128.16 100.394C132.011 98.0316 134.821 96.0706 136.826 94.5715C134.184 92.0703 131.3 89.6757 128.483 87.2286Z" fill="#C7CBC9"/>
</g>
<g style="mix-blend-mode:multiply" opacity="0.35">
<path d="M112.644 100.451C111.871 99.453 111.071 98.4212 110.356 97.3239C104.157 100.155 97.6774 102.327 91.0241 103.804L90.7029 104.053L92.3388 115.592C101.21 113.592 109.794 110.487 117.891 106.348C115.976 104.537 114.221 102.564 112.644 100.451Z" fill="#8F838D"/>
</g>
<path d="M97.1462 100.251C101.71 96.5121 106.644 93.2503 111.873 90.5169C116.63 88.3622 121.592 86.6935 126.684 85.5362C122.211 88.7194 117.536 91.6097 112.689 94.1891C107.663 96.5871 102.469 98.6132 97.1462 100.251Z" fill="#A1A8A6"/>
<g style="mix-blend-mode:multiply">
<path d="M106.951 92.8957C106.108 93.4138 105.339 94.3074 104.483 94.8086C102.92 96.1755 101.467 97.6634 100.138 99.2586C102.275 98.5235 105.278 97.4411 108.861 95.8833C108.418 92.2737 107.449 92.6997 106.951 92.8957Z" fill="#A1A8A6"/>
</g>
<path d="M102.67 97.5672C102.154 97.6694 101.637 97.1767 101.39 96.4744C100.671 94.3243 99.6202 90.6985 100.129 90.1685C100.488 88.7805 107.881 92.6629 107.843 92.9631C107.702 93.8298 107.332 95.7957 106.815 96.1418C105.505 96.8039 104.111 97.2835 102.67 97.5672Z" fill="#DEDEDE"/>
<g style="mix-blend-mode:screen" opacity="0.65">
<path d="M100.698 89.8903C102.63 90.2883 104.734 92.5838 106.781 96.1684C107.305 95.7622 107.685 93.8433 107.809 92.9897C107.88 92.6633 101.789 89.5866 100.698 89.8903Z" fill="#DEDEDE"/>
</g>
<path d="M316.333 120.884C310.401 114.404 268.875 115.71 248.766 130.658C241.908 135.749 237.881 143.237 232.438 148.818C205.634 176.835 215.159 197.119 237.337 209.071C249.854 215.796 276.032 215.442 298.237 202.836C320.442 190.23 328.66 179.312 330.892 166.652C335.219 139.479 316.333 120.884 316.333 120.884ZM301.938 167.959C298.618 167.251 293.775 165.644 288.795 164.719C288.641 164.732 288.486 164.732 288.332 164.719C285.122 164.833 281.923 165.151 278.753 165.672C277.492 166.654 276.174 167.564 274.808 168.394C272.159 169.437 269.903 171.284 268.358 173.676C267.813 174.597 267.092 175.402 266.236 176.045C265.097 177.831 264.087 179.696 263.215 181.627C258.671 191.673 254.29 176.835 249.827 173.268C247.432 169.293 270.018 144.571 284.087 146.967C285.933 147.002 287.765 147.295 289.529 147.838L290.101 148.056C295.244 148.791 300.36 150.071 305.421 151.16C316.225 153.556 312.714 170.409 301.938 168.04V167.959Z" fill="#EE9843"/>
<g style="mix-blend-mode:multiply" opacity="0.65">
<path d="M315.409 120.203C306.946 114.54 268.059 116.309 248.766 130.658C241.909 135.749 237.881 143.237 232.439 148.818C211.485 170.6 212.764 187.861 224.819 200.005L225.935 200.985C231.378 201.883 237.419 200.985 242.045 201.366C250.208 202.264 258.372 210.786 266.536 206.539C274.237 202.51 279.87 202.428 288.305 201.638C295.897 200.903 298.292 191.891 305.83 190.067C308.878 189.359 315.191 189.55 315.545 185.166C315.551 183.073 316.026 181.008 316.932 179.122C320.47 173.105 329.613 173.458 327.382 165.29C325.477 158.457 326.593 151.078 330.103 147.048C327.763 132.319 318.239 123.361 315.409 120.203ZM301.803 168.04C298.483 167.332 293.639 165.726 288.659 164.8C288.505 164.814 288.35 164.814 288.196 164.8C284.987 164.914 281.787 165.232 278.618 165.753C277.356 166.736 276.039 167.645 274.672 168.476C272.023 169.518 269.767 171.366 268.223 173.758C267.677 174.679 266.956 175.484 266.1 176.127C264.961 177.912 263.952 179.778 263.08 181.708C260.875 186.555 258.753 185.629 256.603 182.961C253.664 181.218 250.753 173.894 247.786 171.525C245.392 167.578 267.978 142.828 282.047 145.224C283.891 145.272 285.721 145.565 287.489 146.096C287.695 146.161 287.895 146.243 288.088 146.341C293.231 147.048 298.347 148.328 303.408 149.444C305.38 149.809 307.14 150.909 308.333 152.521C315.354 157.122 311.544 170.164 301.939 168.04H301.803Z" fill="#D98B43"/>
</g>
<path d="M224.166 183.505C224.819 184.186 225.473 184.867 226.153 185.52L228.248 184.649C234.072 182.253 239.296 178.604 245.147 176.208L250.589 174.003C250.401 173.791 250.191 173.6 249.963 173.431C247.569 169.456 270.155 144.734 284.224 147.13C286.069 147.165 287.901 147.458 289.666 148.001L290.237 148.219C293.176 148.655 296.115 149.254 299.054 149.88C301.503 146.776 303.925 143.563 306.592 140.541C310.752 135.296 315.379 130.439 320.416 126.029C319.158 124.235 317.795 122.517 316.334 120.884C310.402 114.404 268.876 115.71 248.766 130.658C241.909 135.749 237.881 143.237 232.439 148.818C221.064 160.689 216.656 171.607 217.01 181.137C218.304 180.82 219.662 180.874 220.928 181.292C222.194 181.711 223.316 182.478 224.166 183.505Z" fill="#822A00"/>
<path d="M327.709 167.006C327.274 163.984 323.709 158.702 324.171 155.843C324.634 152.984 328.335 150.397 329.614 147.974C332.036 143.7 329.614 138.69 328.117 134.361C322.212 117.317 309.069 105.555 278.727 107.352C263.026 108.25 232.466 116.064 216.575 145.469C207.05 163.058 209.69 175.637 218.262 187.862C221.5 192.49 231.079 200.359 237.936 199.651C241.283 199.27 242.97 197.418 246.698 198.181C249.505 198.827 252.129 200.103 254.372 201.911C260.386 206.294 264.577 205.396 271.08 201.911C274.672 199.923 276.06 198.616 280.169 199.515C283.118 200.318 286.245 200.155 289.095 199.052C295.517 196.329 294.292 186.609 303.354 188.161C306.647 188.678 309.858 189.55 312.198 186.527C314.538 183.505 311.871 180.483 313.45 177.461C316.797 171.144 329.287 177.624 327.709 167.006ZM247.814 152.222C259.325 127.881 281.503 138.962 283.598 143.4C291.898 160.689 236.439 176.399 247.814 152.222Z" fill="#A73D22"/>
<g style="mix-blend-mode:screen" opacity="0.75">
<path d="M241.201 153.311C242.15 145.613 244.951 138.26 249.365 131.883C251.636 128.711 254.696 126.187 258.243 124.563C261.79 122.939 265.699 122.272 269.583 122.626C279.815 124.124 287.244 134.497 297.557 135.423C299.671 135.674 301.814 135.392 303.792 134.602C305.769 133.813 307.517 132.541 308.878 130.903C310.171 129.214 310.821 127.119 310.711 124.994C310.602 122.868 309.739 120.852 308.279 119.305C306.901 118.166 305.31 117.314 303.598 116.8C289.233 111.569 273.489 111.547 259.109 116.736C244.728 121.925 232.623 131.997 224.901 145.197C221.895 149.562 220.5 154.837 220.955 160.118C221.826 165.291 226.806 170.028 231.84 168.939C233.395 168.496 234.828 167.701 236.026 166.615C237.225 165.529 238.158 164.182 238.752 162.677C239.966 159.673 240.789 156.525 241.201 153.311Z" fill="#B1523A"/>
</g>
<g style="mix-blend-mode:screen" opacity="0.75">
<path d="M280.032 168.476C270.563 172.914 259.596 172.615 249.174 173.513C246.614 173.627 244.096 174.208 241.745 175.228C240.576 175.753 239.559 176.565 238.788 177.588C238.018 178.612 237.518 179.814 237.337 181.082C237.01 185.52 241.799 188.624 246.153 189.522C254.916 191.292 263.896 188.379 272.304 185.357C280.464 182.794 288.237 179.13 295.407 174.466C302.615 169.695 307.749 162.37 309.775 153.964C310.369 151.507 310.218 148.929 309.34 146.559C308.333 144.244 305.938 141.848 303.517 142.529C294.809 144.871 295.407 161.288 280.032 168.476Z" fill="#B1523A"/>
</g>
<path d="M294.7 118.161C293.88 118.11 293.064 118.309 292.359 118.733L287.352 121.102L288.795 123.661C291.286 122.014 294.168 121.056 297.149 120.884C296.604 119.713 295.924 118.461 294.7 118.161Z" fill="#CC3131"/>
<path d="M322.238 140.106C321.42 140.028 320.598 140.219 319.898 140.65L314.891 143.019L316.333 145.578C318.808 143.898 321.678 142.894 324.66 142.665C324.143 141.576 323.463 140.324 322.238 140.106Z" fill="#CC3131"/>
<path d="M320.388 149.608L314.755 147.784C312.294 150.596 309.668 153.26 306.891 155.761C309.349 156.169 311.631 157.296 313.449 159.001C315.352 155.586 317.684 152.429 320.388 149.608Z" fill="#EAD4AF"/>
<path d="M230.235 165.508L224.602 163.711C222.147 166.521 219.52 169.177 216.737 171.662C219.199 172.049 221.491 173.157 223.323 174.847C225.227 171.457 227.549 168.32 230.235 165.508Z" fill="#EAD4AF"/>
<path d="M286.917 176.998C286.132 176.583 285.246 176.394 284.359 176.454H279.243C278.808 178.278 278.345 180.075 277.883 181.899C281.355 180.812 285.01 180.432 288.632 180.783C288.64 180.065 288.491 179.354 288.195 178.7C287.899 178.046 287.463 177.465 286.917 176.998Z" fill="#FFCC00"/>
<path d="M299.897 143.7C299.061 143.261 298.116 143.072 297.176 143.155H292.087L290.699 148.601C294.15 147.548 297.779 147.205 301.366 147.593C301.416 146.877 301.311 146.158 301.057 145.486C300.804 144.814 300.408 144.204 299.897 143.7Z" fill="#FFCC00"/>
<path d="M232.167 151.105C232.167 152.63 232.411 154.155 232.52 155.707L243.024 153.365C242.429 152.219 242.201 150.916 242.371 149.635C239.034 150.501 235.612 150.994 232.167 151.105Z" fill="#14B661"/>
<path d="M249.582 129.242L241.147 132.864C240.822 134.292 240.757 135.768 240.956 137.22C244.011 135.354 247.333 133.967 250.807 133.109C250.042 131.962 249.617 130.621 249.582 129.242Z" fill="#CC3131"/>
<path d="M264.141 130.086L268.304 128.289C267.615 127.899 267.016 127.368 266.547 126.729C266.078 126.091 265.749 125.361 265.583 124.586C265.289 123.053 264.562 121.635 263.488 120.502L260.304 121.21C261.61 124.178 262.834 127.118 264.141 130.086Z" fill="#FFCC00"/>
<path d="M241.146 166.407L245.337 164.61C244.641 164.229 244.037 163.7 243.567 163.06C243.097 162.42 242.772 161.686 242.616 160.907C242.322 159.373 241.595 157.956 240.52 156.823L237.337 157.531L241.146 166.407Z" fill="#FFCC00"/>
<path d="M284.36 129.705L281.639 128.289L275.57 133.027L280.088 135.041L284.36 129.705Z" fill="#EAD4AF"/>
<path d="M256.821 188.379L254.1 186.963L248.031 191.673L252.576 193.688L256.821 188.379Z" fill="#EAD4AF"/>
<path d="M301.121 130.386C301.053 129.982 300.871 129.606 300.596 129.302C300.321 128.998 299.965 128.779 299.57 128.671C299.173 128.563 298.751 128.587 298.369 128.739C297.986 128.891 297.663 129.163 297.448 129.515C297.325 129.759 297.224 130.014 297.149 130.277C296.442 132.846 296.386 135.55 296.985 138.146C298.28 137.528 299.732 137.319 301.149 137.547C300.567 136.181 300.425 134.668 300.741 133.217C301.065 132.311 301.194 131.346 301.121 130.386Z" fill="#14B661"/>
<path d="M281.339 184.54C281.257 184.137 281.067 183.765 280.788 183.463C280.51 183.161 280.155 182.94 279.761 182.825C279.365 182.73 278.949 182.764 278.572 182.92C278.196 183.077 277.879 183.348 277.666 183.696C277.511 183.925 277.409 184.185 277.367 184.458C276.66 187.027 276.604 189.731 277.203 192.327C278.488 191.677 279.945 191.448 281.367 191.673C280.785 190.298 280.642 188.777 280.958 187.317C281.266 186.425 281.395 185.482 281.339 184.54Z" fill="#14B661"/>
<path d="M249.147 181.409L253.284 182.035C253.719 179.312 254.155 176.726 254.617 174.058L251.406 175.337C250.671 177.298 249.909 179.367 249.147 181.409Z" fill="#CC3131"/>
<path d="M227.187 177.842C227.422 177.991 227.702 178.049 227.976 178.005L233.174 177.597C232.875 174.419 233.226 171.214 234.208 168.177C232.707 168.965 231.056 169.429 229.364 169.538C228.657 171.961 227.922 174.384 227.214 176.807C227.024 177.161 226.942 177.597 227.187 177.842Z" fill="#FFCC00"/>
<path d="M309.394 170.627C309.504 170.705 309.627 170.76 309.759 170.788C309.89 170.816 310.025 170.817 310.156 170.79L315.354 170.382C315.056 167.21 315.38 164.01 316.306 160.961C314.816 161.753 313.174 162.218 311.49 162.323C310.782 164.746 310.048 167.196 309.313 169.619C309.231 169.892 309.15 170.382 309.394 170.627Z" fill="#FFCC00"/>
<path d="M303.517 175.773C303.495 172.953 304.099 170.163 305.286 167.605H301.095L298.374 175.119L303.517 175.773Z" fill="#14B661"/>
<path d="M262.645 194.695L267.353 194.913C267.68 192.038 268.253 189.196 269.067 186.418C268.817 186.231 268.522 186.113 268.212 186.075C267.901 186.036 267.587 186.08 267.298 186.201L262.645 194.695Z" fill="#6BC3C3"/>
<path d="M220.112 153.883L217.88 161.234L222.044 161.561L223.404 153.393L220.112 153.883Z" fill="#CC3131"/>
<path d="M232.494 139.479C231.571 139.601 230.697 139.968 229.963 140.541L225.963 143.264L228.684 146.613C230.545 144.234 233.02 142.407 235.841 141.331C235.003 140.308 233.805 139.646 232.494 139.479Z" fill="#6BC3C3"/>
<path d="M244.276 174.793C243.352 174.915 242.479 175.281 241.745 175.855L237.745 178.577L240.466 181.926C242.375 179.49 244.917 177.625 247.813 176.535C246.905 175.517 245.636 174.892 244.276 174.793Z" fill="#6BC3C3"/>
<path d="M314.484 135.45C314.929 135.62 315.397 135.721 315.872 135.749C316.223 135.735 316.564 135.627 316.86 135.438C317.156 135.248 317.396 134.984 317.557 134.671C317.717 134.358 317.792 134.009 317.773 133.657C317.754 133.306 317.643 132.967 317.45 132.673C315.085 131.796 312.822 130.664 310.701 129.297C309.586 130.495 308.47 131.693 307.382 132.918L314.484 135.45Z" fill="#6BC3C3"/>
<path d="M293.312 171.117C293.75 171.307 294.222 171.409 294.7 171.417C295.055 171.411 295.401 171.309 295.702 171.121C296.004 170.934 296.249 170.668 296.411 170.352C296.573 170.036 296.646 169.682 296.623 169.328C296.599 168.973 296.48 168.632 296.278 168.34C293.915 167.457 291.653 166.326 289.529 164.964L286.209 168.585L293.312 171.117Z" fill="#6BC3C3"/>
<path d="M281.747 126.955C282.186 127.147 282.656 127.258 283.135 127.282C283.477 127.28 283.814 127.192 284.114 127.025C284.413 126.858 284.666 126.619 284.849 126.329C285.028 126.024 285.123 125.676 285.123 125.322C285.123 124.967 285.028 124.62 284.849 124.314C282.439 123.417 280.131 122.267 277.964 120.884L274.644 124.423L281.747 126.955Z" fill="#6BC3C3"/>
<path d="M251.95 144.135C252.386 144.331 252.859 144.433 253.338 144.435C253.692 144.427 254.038 144.324 254.339 144.138C254.641 143.951 254.887 143.687 255.052 143.373C255.226 143.066 255.318 142.719 255.318 142.366C255.318 142.012 255.226 141.665 255.052 141.358C252.687 140.481 250.424 139.349 248.303 137.982L244.983 141.603L251.95 144.135Z" fill="#6BC3C3"/>
<path d="M279.216 114.077C277.2 115.333 274.951 116.167 272.603 116.527C272.767 117.725 272.93 118.923 273.066 120.121C275.715 118.668 278.568 117.621 281.529 117.017C280.444 116.331 279.628 115.293 279.216 114.077Z" fill="#14B661"/>
<path d="M261.419 170.273C260.131 170.189 258.876 169.833 257.736 169.227C256.596 168.622 255.598 167.781 254.807 166.761L251.677 170.082C254.596 171.117 257.346 172.576 259.841 174.411C260.412 173.05 260.929 171.662 261.419 170.273Z" fill="#EAD4AF"/>
<path d="M255.515 123.252C254.228 123.165 252.973 122.807 251.834 122.202C250.694 121.597 249.695 120.758 248.902 119.74L245.773 123.034C248.682 124.102 251.43 125.568 253.936 127.391C254.426 126.002 254.97 124.641 255.515 123.252Z" fill="#EAD4AF"/>
<path d="M301.558 182.743C300.271 182.653 299.018 182.293 297.879 181.688C296.74 181.083 295.741 180.246 294.945 179.231L291.816 182.525C294.728 183.587 297.476 185.053 299.979 186.882L301.558 182.743Z" fill="#EAD4AF"/>
<path d="M289.448 163.249C289.658 163.508 289.93 163.712 290.239 163.84C290.548 163.968 290.884 164.018 291.216 163.984C291.55 163.938 291.867 163.807 292.134 163.601C292.401 163.396 292.61 163.124 292.74 162.813C292.577 160.526 292.441 158.239 292.278 155.952C291.13 156.272 290.024 156.729 288.985 157.313C288.427 158.964 288.427 160.753 288.985 162.404C289.111 162.701 289.266 162.983 289.448 163.249Z" fill="#CC3131"/>
<path d="M273.312 166.461C273.067 166.135 272.522 166.216 272.141 166.461L269.202 167.169C268.577 169.701 267.978 172.233 267.352 174.793H271.271C271.978 172.342 272.658 169.865 273.339 167.387C273.411 167.242 273.446 167.082 273.441 166.921C273.437 166.759 273.392 166.601 273.312 166.461Z" fill="#14B661"/>
<path d="M232.14 188.951C235.227 188.745 238.326 189.105 241.283 190.012C241.583 188.324 241.909 186.636 242.236 184.948C239.52 185.192 236.788 185.192 234.072 184.948C233.419 186.391 232.766 187.671 232.14 188.951Z" fill="#14B661"/>
<path d="M196.71 224.571C191.761 227.934 191.305 235.461 187.397 239.991C183.488 244.522 176.868 245.627 173.978 250.659C171.089 255.692 173.722 262.756 174.09 268.92C173.905 274.895 172.851 280.811 170.961 286.482C169.598 292.218 169.082 298.608 172.246 303.308C174.177 305.827 176.776 307.752 179.748 308.864C182.72 309.976 185.945 310.231 189.055 309.599C195.376 308.194 201.385 305.638 206.781 302.056C222.776 293.371 238.031 283.387 252.393 272.205C255.754 269.869 258.581 266.847 260.686 263.336C261.676 261.598 262.146 259.613 262.042 257.616C261.937 255.619 261.261 253.693 260.095 252.069C257.954 249.718 254.487 249.125 252.071 247.064C247.687 243.358 247.227 237.169 241.744 234.126C237.002 232.11 231.888 231.118 226.736 231.217C223.53 231.076 220.364 230.455 217.342 229.374C214.372 228.154 211.865 225.937 208.735 224.576C206.892 223.568 204.825 223.039 202.724 223.038C200.623 223.037 198.555 223.564 196.71 224.571Z" fill="#D2923D"/>
<g style="mix-blend-mode:screen" opacity="0.32">
<path d="M193.561 267.942C202.497 264.453 200.279 258.555 203.91 251.478C205.856 247.353 208.945 243.874 212.808 241.452C216.804 238.75 221.63 237.558 226.422 238.089C231.86 239.076 235.993 242.979 241.273 244.188C243.927 244.734 246.684 244.469 249.186 243.427C247.083 240.065 245.729 236.243 241.8 234.042C237.059 232.026 231.944 231.035 226.793 231.133C223.587 230.992 220.42 230.371 217.399 229.29C214.428 228.071 211.922 225.853 208.792 224.492C206.944 223.507 204.879 223.001 202.785 223.019C200.691 223.037 198.634 223.579 196.803 224.596C191.855 227.959 191.399 235.486 187.49 240.017C183.581 244.547 176.961 245.652 174.072 250.684C171.183 255.717 173.407 261.716 174.052 267.459C180.251 270.124 187.238 270.297 193.561 267.942Z" fill="#A24B27"/>
</g>
<g style="mix-blend-mode:multiply" opacity="0.55">
<path d="M180.528 277.657C186.02 276.087 195.057 274.076 195.047 267.184C191.752 270.53 187.47 272.73 182.832 273.458C179.684 273.653 176.575 272.672 174.109 270.706C173.963 273.915 173.458 277.098 172.603 280.195C175.154 279.522 177.798 278.38 180.528 277.657Z" fill="#B9866E"/>
</g>
<g style="mix-blend-mode:multiply" opacity="0.55">
<path d="M201.707 244.529C203.07 243.592 204.494 242.748 205.971 242.005C209.387 240.96 212.714 239.641 215.918 238.061C218.395 236.065 220.248 233.401 221.258 230.384C219.894 230.153 218.555 229.796 217.258 229.319C216.26 228.879 215.295 228.369 214.37 227.791C213.567 230.308 212.409 232.697 210.931 234.886C208.372 238.556 202.744 240.387 201.707 244.529Z" fill="#B9866E"/>
</g>
<g style="mix-blend-mode:multiply" opacity="0.55">
<path d="M231.746 262.387C226.804 264.367 221.063 262.541 218.855 269.47C218.147 272.368 216.655 275.016 214.543 277.123C214.151 277.481 213.698 277.821 213.275 278.17C219.666 278.917 223.876 270.906 228.468 267.151C231.22 265.377 233.652 263.149 235.659 260.561C234.389 261.239 233.083 261.849 231.746 262.387Z" fill="#B9866E"/>
</g>
<g style="mix-blend-mode:multiply" opacity="0.55">
<path d="M224.538 246.521C224.472 246.723 224.417 246.929 224.374 247.137C226.819 246.219 229.357 245.568 231.942 245.197C237.194 244.259 241.975 241.57 245.506 237.568C244.482 236.114 243.151 234.904 241.607 234.024C239.427 232.904 237.072 232.165 234.643 231.839C234.437 234.549 233.438 237.138 231.771 239.283C229.689 242.025 226.065 243.632 224.538 246.521Z" fill="#B9866E"/>
</g>
<g style="mix-blend-mode:multiply" opacity="0.55">
<path d="M259.912 252.02C259.624 257.68 256.253 262.42 248.164 264.089C240.075 265.759 239.399 273.986 232.637 277.229C225.876 280.472 219.125 278.476 214.971 284.424C213.623 286.364 211.83 287.951 209.742 289.053C207.654 290.154 205.332 290.739 202.971 290.756C198.266 290.854 196.639 297.212 193.29 299.518C191.279 300.91 189.096 302.035 186.797 302.865C179.054 305.583 174.07 302.278 170.09 296.932C170.267 299.238 170.996 301.467 172.214 303.432C174.162 305.934 176.774 307.839 179.751 308.929C182.729 310.019 185.953 310.251 189.056 309.599C195.377 308.195 201.386 305.638 206.782 302.057C222.777 293.372 238.032 283.388 252.394 272.205C255.755 269.87 258.582 266.847 260.687 263.337C261.677 261.599 262.147 259.614 262.043 257.616C261.938 255.619 261.263 253.694 260.097 252.07L259.912 252.02Z" fill="#B9866E"/>
</g>
<path d="M252.253 266.794C251.784 269.174 251.591 271.134 249.364 272.321C246.985 273.61 244.194 273.909 241.597 273.153C241.238 276.355 241.817 278.388 238.404 279.82C236.026 280.817 233.452 281.259 230.877 281.112C230.262 283.42 230.529 284.645 228.294 285.863C225.503 287.451 222.255 288.04 219.085 287.531C216.75 293.206 212.232 296.684 207.375 295.126C206.941 296.909 205.821 298.447 204.258 299.406C201.239 301.09 197.743 301.714 194.329 301.179C190.915 306.204 188.729 308.721 183.121 308.744L225.643 345.421C242.62 341.381 258.223 332.91 270.864 320.872L258.799 264.483C256.984 266.047 254.647 266.872 252.253 266.794Z" fill="#BE4C1B"/>
<path d="M194.366 305.739C202.605 319.974 213.859 332.233 227.338 341.653C227.338 341.653 212.215 311.713 194.366 305.739Z" fill="#8F3300"/>
<path d="M208.68 299.133C208.68 299.133 216.662 323.842 237.005 338.392C237.005 338.392 224.609 306.871 208.68 299.133Z" fill="#8F3300"/>
<path d="M221.208 291.558C225.529 307.502 234.255 321.904 246.385 333.111C246.385 333.111 234.828 300.791 221.208 291.558Z" fill="#8F3300"/>
<path d="M233.107 285.233C233.107 285.233 237.616 311.852 253.514 328.119C253.514 328.119 245.463 296.865 233.107 285.233Z" fill="#8F3300"/>
<path d="M244.457 279.487C245.694 295.232 250.86 310.415 259.484 323.643C259.484 323.643 255.763 295.058 244.457 279.487Z" fill="#8F3300"/>
<path d="M254.073 272.454C254.456 288.69 258.134 304.677 264.886 319.445C264.886 319.445 263.697 286.919 254.073 272.454Z" fill="#8F3300"/>
<g style="mix-blend-mode:multiply" opacity="0.5">
<path d="M242.697 314.425C233.994 316.297 224.923 315.369 216.78 311.774C212.511 310.11 208.276 308.322 204.128 306.328C201.697 305.186 199.388 303.713 197.023 302.325C193.838 306.983 191.863 309.325 186.563 309.43L226.201 343.328C241.954 339.535 256.425 331.64 268.145 320.445L264.167 301.978C258.107 307.783 250.744 312.051 242.697 314.425Z" fill="#9E5838"/>
</g>
<g style="mix-blend-mode:screen" opacity="0.32">
<path d="M227.501 234.783C227.216 234.708 226.918 234.694 226.627 234.741C226.337 234.789 226.059 234.897 225.813 235.059L215.411 239.969C213.841 240.615 212.369 241.477 211.038 242.53C209.681 243.619 208.8 245.193 208.584 246.92C208.489 247.727 208.657 248.543 209.064 249.245C209.471 249.948 210.094 250.5 210.841 250.818C211.576 250.947 212.333 250.873 213.031 250.607C213.728 250.34 214.341 249.889 214.803 249.302C215.763 248.123 216.546 246.81 217.126 245.404C217.735 243.995 218.634 242.729 219.763 241.689C222.179 239.794 225.967 240.045 227.556 237.171C228.284 236.541 228.391 235.152 227.501 234.783Z" fill="#B27B60"/>
</g>
<g style="mix-blend-mode:screen" opacity="0.32">
<path d="M177.85 257.526L177.014 262.15C176.741 263.139 176.76 264.185 177.068 265.164C177.572 265.916 178.35 266.442 179.236 266.629C180.122 266.816 181.046 266.649 181.81 266.163C184.544 264.683 185.661 261.354 187.134 258.548C188.768 255.554 191.067 252.974 193.854 251.008C194.854 250.403 195.784 249.689 196.628 248.879C197.062 248.467 197.398 247.962 197.61 247.402C197.821 246.842 197.904 246.241 197.852 245.645C197.67 244.926 197.259 244.287 196.68 243.824C196.102 243.36 195.389 243.098 194.648 243.077C193.156 243.057 191.681 243.386 190.339 244.039C188.084 244.878 185.922 245.948 183.887 247.233C181.866 248.558 180.237 250.401 179.171 252.57C178.525 254.16 178.081 255.825 177.85 257.526Z" fill="#B27B60"/>
</g>
<g style="mix-blend-mode:screen" opacity="0.32">
<path d="M237.015 256.834C235.805 257.519 234.665 258.319 233.61 259.224C231.044 261.091 227.95 262.091 224.777 262.08C227.72 259.729 230.254 256.905 232.274 253.725C234.302 250.529 237.337 248.101 240.9 246.825C241.838 246.564 242.824 246.523 243.782 246.703C244.739 246.884 245.642 247.282 246.421 247.867C247.163 248.543 247.659 249.446 247.831 250.435C248.003 251.424 247.841 252.442 247.372 253.329C246.811 254.087 246.09 254.712 245.259 255.158C244.428 255.604 243.508 255.859 242.567 255.906C240.679 255.92 238.805 256.234 237.015 256.834Z" fill="#B27B60"/>
</g>
<g style="mix-blend-mode:screen" opacity="0.32">
<path d="M201.622 268.11C201.924 268.646 202.364 269.091 202.895 269.4C203.426 269.71 204.03 269.873 204.645 269.872C205.893 269.863 207.117 269.53 208.197 268.906C212.712 266.052 216.481 262.162 219.193 257.56C219.825 256.673 220.448 255.323 219.687 254.592C219.444 254.384 219.158 254.234 218.849 254.152C218.54 254.069 218.217 254.057 217.903 254.117C212.29 255.11 207.181 257.98 203.411 262.257C202.649 263.083 202.038 264.036 201.607 265.074C201.407 265.555 201.306 266.072 201.308 266.594C201.311 267.115 201.417 267.631 201.622 268.11Z" fill="#B27B60"/>
</g>
<g style="mix-blend-mode:screen" opacity="0.32">
<path d="M186.474 282.175C185.125 283.046 183.684 283.768 182.178 284.327C180.186 284.775 178.264 285.495 176.468 286.466C175.615 287.091 174.941 287.931 174.515 288.9C174.089 289.869 173.926 290.933 174.043 291.985C174.19 293.009 174.617 293.973 175.277 294.771C175.936 295.569 176.802 296.17 177.78 296.508C178.891 296.793 180.051 296.83 181.178 296.618C182.305 296.405 183.371 295.948 184.302 295.278C186.169 293.899 187.865 292.303 189.357 290.525C190.849 288.73 192.667 287.234 194.716 286.117C196.373 285.339 198.301 285.028 199.905 284.203C200.765 283.86 201.521 283.298 202.096 282.572C202.671 281.845 203.046 280.981 203.182 280.064C203.175 279.314 202.947 278.581 202.527 277.959C202.106 277.337 201.512 276.853 200.818 276.567C199.398 276.035 197.834 276.027 196.409 276.546C194.946 277.11 193.555 277.846 192.266 278.739C190.379 279.885 188.423 281.045 186.474 282.175Z" fill="#B27B60"/>
</g>
<path d="M206.514 230.941L205.898 230.777C205.584 230.499 205.209 230.297 204.803 230.189C204.397 230.081 203.971 230.069 203.56 230.154C202.745 230.374 201.988 230.769 201.341 231.31C200.146 232.205 199.117 233.304 198.302 234.556C197.945 234.99 197.71 235.512 197.62 236.067C197.53 236.622 197.589 237.191 197.79 237.716C197.966 237.975 198.202 238.188 198.478 238.336C198.754 238.484 199.062 238.564 199.375 238.567C199.995 238.587 200.611 238.47 201.18 238.223C202.793 237.657 204.263 236.743 205.485 235.546C206.323 234.794 206.882 233.782 207.074 232.672C207.059 231.613 207.539 231.049 206.514 230.941Z" fill="#652700"/>
<path d="M175.521 259.84C176.444 260.086 177.447 259.661 178.237 259.047C179.115 258.458 179.858 257.69 180.419 256.793C180.716 256.329 180.915 255.809 181.003 255.266C181.091 254.722 181.067 254.166 180.931 253.632C180.793 253.128 180.492 252.684 180.075 252.37C179.657 252.056 179.147 251.89 178.625 251.897C178.582 251.857 178.531 251.826 178.476 251.806C178.42 251.786 178.361 251.777 178.302 251.779C178.243 251.782 178.185 251.796 178.132 251.822C178.079 251.847 178.031 251.882 177.991 251.926L176.884 252.126C175.927 252.704 175.165 253.555 174.695 254.569C174.225 255.584 174.069 256.716 174.247 257.819C174.273 258.236 174.403 258.64 174.625 258.993C174.848 259.346 175.156 259.637 175.521 259.84Z" fill="#B27B60"/>
<path d="M231.578 251.265C230.647 250.791 229.612 250.553 228.566 250.574C227.521 250.594 226.496 250.872 225.583 251.383C224.897 251.746 224.32 252.287 223.914 252.949C223.454 253.555 223.251 254.318 223.348 255.073C223.501 255.682 223.852 256.222 224.345 256.61C224.838 256.998 225.445 257.211 226.072 257.216C227.333 257.204 228.567 256.849 229.641 256.189C230.235 255.968 230.773 255.62 231.218 255.169C231.662 254.718 232.003 254.174 232.215 253.577C232.672 251.985 232.641 251.977 231.578 251.265Z" fill="#652700"/>
<path d="M209.504 245.814C208.687 245.61 207.826 245.673 207.048 245.994C206.269 246.314 205.612 246.875 205.175 247.595C204.297 249.08 203.794 250.756 203.709 252.479C203.588 252.953 203.578 253.449 203.679 253.927C203.78 254.406 203.99 254.855 204.292 255.239C205.168 256.033 206.542 255.575 207.664 254.95C209.488 253.779 210.931 252.101 211.817 250.122C212.143 249.591 212.321 248.981 212.331 248.357C212.34 247.733 212.182 247.118 211.871 246.576C210.977 245.481 210.704 246.134 209.504 245.814Z" fill="#652700"/>
<path d="M178.961 289.108C179.543 287.788 179.917 286.386 180.068 284.952C180.16 284.638 180.185 284.308 180.14 283.984C180.096 283.66 179.984 283.348 179.811 283.071C179.675 282.943 179.513 282.847 179.335 282.789C179.157 282.731 178.969 282.713 178.784 282.736C178.599 282.759 178.421 282.822 178.263 282.922C178.104 283.021 177.97 283.154 177.869 283.312L177.157 283.386L177.004 283.345L176.801 283.488C175.961 283.598 175.192 284.016 174.643 284.661C174.103 285.314 173.655 286.037 173.312 286.812C172.965 287.359 172.739 287.973 172.648 288.613C172.556 289.254 172.603 289.907 172.784 290.529C173.092 291.124 173.601 291.591 174.22 291.847C174.84 292.102 175.53 292.13 176.168 291.924C176.806 291.679 177.385 291.301 177.866 290.815C178.348 290.33 178.721 289.748 178.961 289.108Z" fill="#652700"/>
<path d="M192.867 295.285C193.597 295.596 194.395 295.716 195.185 295.632C195.974 295.548 196.729 295.263 197.377 294.804C198.693 293.861 199.831 292.69 200.736 291.347C201.092 290.96 201.369 290.508 201.553 290.015C201.631 289.774 201.643 289.517 201.587 289.27C201.531 289.023 201.409 288.795 201.234 288.612C201.058 288.462 200.851 288.354 200.627 288.294C200.404 288.235 200.17 288.226 199.942 288.268C199.485 288.377 199.034 288.586 198.585 288.664C197.576 288.648 196.574 288.503 195.602 288.233C194.738 288.155 193.871 288.35 193.122 288.788C192.374 289.227 191.78 289.888 191.425 290.68C191.06 291.492 191.005 292.408 191.271 293.257C191.537 294.106 192.105 294.827 192.867 295.285Z" fill="#652700"/>
<path d="M212.795 274.284C213.289 273.586 213.7 272.833 214.019 272.039C214.142 271.814 214.21 271.562 214.215 271.305C214.22 271.048 214.163 270.794 214.049 270.563C213.633 270.024 212.788 270.227 212.144 270.419L208.975 271.553C208.193 271.791 207.447 272.136 206.758 272.578C206.067 273.037 205.582 273.747 205.407 274.558C205.334 275.131 205.457 275.711 205.757 276.204C206.057 276.697 206.515 277.074 207.056 277.272C207.621 277.461 208.222 277.519 208.813 277.443C209.404 277.366 209.97 277.156 210.469 276.83C211.409 276.148 212.2 275.282 212.795 274.284Z" fill="#652700"/>
<path d="M230.248 273.823C230.064 273.171 229.634 272.616 229.048 272.276C228.462 271.935 227.767 271.836 227.11 271.998C226.426 272.195 225.799 272.551 225.28 273.037C224.761 273.524 224.365 274.127 224.124 274.796C223.629 276.106 223.446 277.514 223.589 278.907C223.563 279.132 223.587 279.36 223.662 279.574C223.736 279.788 223.858 279.982 224.018 280.142C224.263 280.276 224.539 280.343 224.819 280.336C225.098 280.33 225.371 280.25 225.61 280.104C227.326 279.362 228.748 278.071 229.652 276.434C230.156 275.663 230.367 274.737 230.248 273.823Z" fill="#652700"/>
<path d="M250.631 259.274C251.287 259.051 251.882 258.679 252.371 258.188C252.874 257.668 253.162 256.977 253.178 256.253C253.193 255.53 252.935 254.827 252.454 254.287C252.036 253.927 251.542 253.667 251.009 253.525C250.477 253.383 249.919 253.363 249.377 253.467C247.965 253.659 246.619 254.182 245.446 254.991C244.563 255.551 243.874 256.369 243.471 257.334C243.271 257.794 243.216 258.304 243.315 258.796C243.414 259.288 243.661 259.738 244.023 260.085C244.433 260.336 244.894 260.491 245.372 260.539C245.85 260.586 246.333 260.525 246.784 260.359C248.098 260.119 249.386 259.756 250.631 259.274Z" fill="#652700"/>
<path d="M192.403 259.919C191.717 259.709 190.995 259.64 190.282 259.716C189.09 260.081 188.032 260.787 187.237 261.747C186.442 262.708 185.947 263.88 185.812 265.119C185.723 265.566 185.749 266.028 185.887 266.463C186.025 266.897 186.27 267.289 186.6 267.604C186.876 267.806 187.199 267.935 187.538 267.979C187.878 268.024 188.223 267.982 188.542 267.857C189.206 267.611 189.806 267.219 190.297 266.71C191.141 265.906 191.872 264.991 192.471 263.992C192.847 263.4 193.112 262.744 193.25 262.056C193.306 261.718 193.293 261.372 193.212 261.039C193.131 260.706 192.983 260.392 192.778 260.117C192.325 259.469 192.979 259.611 192.403 259.919Z" fill="#652700"/>
<path d="M176.751 260.167C178.222 259.762 179.564 258.984 180.648 257.908C181.169 257.347 181.545 256.666 181.742 255.925C181.94 255.185 181.952 254.407 181.779 253.66C181.567 253.023 181.173 252.461 180.645 252.046C180.118 251.63 179.48 251.378 178.811 251.32L178.534 251.247C177.829 251.473 177.19 251.868 176.671 252.395C176.152 252.923 175.768 253.568 175.552 254.277C175.127 255.7 174.922 257.179 174.944 258.664C174.896 258.937 174.911 259.218 174.989 259.484C175.067 259.751 175.204 259.996 175.391 260.201C175.748 260.593 176.23 260.391 176.751 260.167Z" fill="#652700"/>
<path d="M134.796 229.756C131.883 228.912 128.971 231.248 125.955 231.217C122.939 231.186 120.273 228.951 117.397 229.483C114.521 230.014 112.695 233.471 110.456 235.629C108.069 237.617 105.396 239.232 102.528 240.421C99.803 241.832 97.0644 243.909 96.1949 246.891C95.8563 248.59 95.9944 250.351 96.594 251.977C97.1935 253.603 98.2311 255.031 99.5918 256.104C102.342 258.234 105.47 259.823 108.812 260.786C117.766 264.218 126.996 266.881 136.403 268.744C138.44 269.217 140.559 269.221 142.598 268.756C143.612 268.514 144.53 267.974 145.234 267.205C145.938 266.437 146.397 265.475 146.551 264.444C146.666 262.702 145.673 261.119 145.577 259.385C145.422 256.309 147.514 253.939 146.672 250.741C145.784 248.158 144.383 245.782 142.554 243.755C141.509 242.433 140.654 240.97 140.015 239.411C139.428 237.808 139.381 236.098 138.885 234.472C138.637 233.413 138.135 232.43 137.422 231.609C136.71 230.787 135.808 230.151 134.796 229.756Z" fill="#993A12"/>
<g style="mix-blend-mode:screen" opacity="0.32">
<path d="M117.468 243.193C121.88 245.509 123.347 242.656 127.266 241.659C129.493 241.024 131.859 241.067 134.062 241.783C136.462 242.479 138.547 243.985 139.965 246.044C141.401 248.562 141.474 251.593 142.845 254.068C143.543 255.309 144.586 256.32 145.847 256.978C146.35 254.951 147.274 253.066 146.64 250.719C145.752 248.137 144.352 245.761 142.522 243.733C141.477 242.411 140.622 240.949 139.983 239.389C139.396 237.786 139.35 236.077 138.853 234.45C138.602 233.402 138.102 232.429 137.396 231.615C136.689 230.8 135.797 230.169 134.794 229.773C131.881 228.929 128.969 231.266 125.953 231.235C122.938 231.204 120.272 228.969 117.395 229.5C114.519 230.031 112.954 232.96 110.988 235.17C112.064 238.564 114.377 241.428 117.468 243.193Z" fill="#A24B27"/>
</g>
<g style="mix-blend-mode:multiply" opacity="0.55">
<path d="M109.299 241.297C111.808 242.967 115.735 245.924 118.358 243.516C115.876 243.336 113.522 242.347 111.657 240.7C110.486 239.503 109.799 237.914 109.729 236.24C108.415 237.315 106.973 238.223 105.436 238.945C106.755 239.762 108.052 240.471 109.299 241.297Z" fill="#8C3A12"/>
</g>
<g style="mix-blend-mode:multiply" opacity="0.55">
<path d="M129.153 238.403C129.971 238.63 130.774 238.908 131.558 239.235C133.089 240.237 134.698 241.116 136.368 241.864C137.924 242.152 139.529 241.97 140.981 241.342C140.615 240.742 140.295 240.114 140.026 239.465C139.84 238.917 139.688 238.358 139.571 237.791C138.37 238.311 137.103 238.659 135.806 238.825C133.641 239.007 131.034 237.412 129.153 238.403Z" fill="#8C3A12"/>
</g>
<g style="mix-blend-mode:multiply" opacity="0.55">
<path d="M132.857 256.684C130.425 255.374 129.08 252.411 125.681 254.018C124.33 254.759 122.794 255.095 121.257 254.985L120.411 254.878C122.346 257.758 126.88 256.611 129.903 257.135C131.516 257.648 133.208 257.862 134.897 257.768C134.192 257.455 133.511 257.093 132.857 256.684Z" fill="#8C3A12"/>
</g>
<g style="mix-blend-mode:multiply" opacity="0.55">
<path d="M136.232 248.206L135.921 248.307C137.126 248.987 138.254 249.795 139.285 250.718C141.385 252.476 144.023 253.461 146.761 253.51C146.951 252.583 146.928 251.625 146.694 250.709C146.355 249.449 145.812 248.253 145.089 247.168C144.041 248.024 142.748 248.525 141.397 248.597C139.699 248.698 137.864 247.798 136.232 248.206Z" fill="#8C3A12"/>
</g>
<path d="M146.551 264.444C144.359 266.362 141.419 266.71 137.969 264.007C134.52 261.303 131.158 264.004 127.639 262.399C124.315 260.924 122.438 257.313 118.678 257.75C117.434 257.903 116.172 257.746 115.004 257.291C113.836 256.837 112.799 256.099 111.986 255.145C110.321 253.178 107.246 254.861 105.074 254.269C103.813 253.938 102.601 253.442 101.469 252.794C97.6795 250.557 97.2791 247.344 98.0415 243.822C97.1733 244.715 96.5301 245.801 96.165 246.992C95.8264 248.692 95.9645 250.452 96.5641 252.079C97.1636 253.705 98.2012 255.133 99.5619 256.205C102.312 258.336 105.44 259.924 108.782 260.887C117.736 264.32 126.966 266.982 136.373 268.846C138.41 269.319 140.529 269.323 142.568 268.858C143.602 268.614 144.536 268.061 145.248 267.273C145.96 266.484 146.414 265.498 146.551 264.444Z" fill="#792C12"/>
<path d="M138.37 266.657C137.319 267.332 136.449 267.96 135.279 267.495C133.929 266.961 132.839 265.922 132.241 264.598C130.919 265.607 130.336 266.605 128.588 265.716C127.347 265.105 126.259 264.222 125.404 263.134C124.269 263.64 123.926 264.264 122.652 263.787C121.034 263.202 119.669 262.073 118.791 260.592C115.737 261.698 112.791 261.114 111.713 258.536C111.289 258.761 110.823 258.899 110.344 258.941C109.866 258.983 109.383 258.928 108.926 258.78C107.188 258.129 105.717 256.916 104.746 255.334C101.552 255.737 99.7783 255.741 97.8079 253.419L97.9371 285.229C105.6 290.926 114.714 294.346 124.232 295.096L141.637 268.582C140.993 268.492 140.373 268.275 139.812 267.945C139.251 267.615 138.761 267.177 138.37 266.657Z" fill="#BE4C1B"/>
<path d="M102.995 256.957C100.097 265.805 99.0958 275.165 100.058 284.426C100.058 284.426 106.866 266.582 102.995 256.957Z" fill="#8F3300"/>
<path d="M110.626 260.471C110.626 260.471 103.52 273.043 104.86 287.266C104.86 287.266 113.212 269.986 110.626 260.471Z" fill="#8F3300"/>
<path d="M117.99 262.897C113.134 270.832 110.502 279.927 110.369 289.228C110.369 289.228 119.19 271.99 117.99 262.897Z" fill="#8F3300"/>
<path d="M124.646 265.515C124.646 265.515 115.808 277.341 114.997 290.395C114.997 290.395 124.499 274.982 124.646 265.515Z" fill="#8F3300"/>
<path d="M130.832 268.091C125.043 274.697 120.963 282.625 118.953 291.177C118.953 291.177 128.867 278.609 130.832 268.091Z" fill="#8F3300"/>
<path d="M136.888 269.491C130.658 275.915 125.788 283.53 122.568 291.881C122.568 291.881 134.91 278.866 136.888 269.491Z" fill="#8F3300"/>
<g style="mix-blend-mode:multiply" opacity="0.5">
<path d="M116.606 280.463C112.706 277.433 109.853 273.257 108.447 268.521C107.611 266.114 106.831 263.679 106.161 261.205C105.781 259.769 105.548 258.282 105.281 256.79C102.319 257.17 100.668 257.171 98.8335 255.024L98.9516 284.567C106.075 289.856 114.544 293.029 123.388 293.724L129.219 284.837C124.712 284.472 120.372 282.967 116.606 280.463Z" fill="#9E5838"/>
</g>
<g style="mix-blend-mode:screen" opacity="0.32">
<path d="M141.601 245.32C141.454 245.049 141.211 244.843 140.92 244.742L135.54 242.304C134.767 241.904 133.94 241.616 133.086 241.448C132.659 241.36 132.219 241.362 131.794 241.453C131.368 241.544 130.966 241.723 130.613 241.978C130.266 242.242 130.015 242.613 129.902 243.034C129.788 243.455 129.817 243.902 129.985 244.305C130.186 244.632 130.469 244.901 130.806 245.085C131.143 245.27 131.522 245.363 131.906 245.356C132.677 245.333 133.441 245.192 134.17 244.941C134.901 244.691 135.68 244.615 136.446 244.72C137.97 245.018 139.19 246.613 140.733 246.352C141.243 246.206 141.769 245.798 141.601 245.32Z" fill="#B27B60"/>
</g>
<g style="mix-blend-mode:screen" opacity="0.32">
<path d="M116.101 233.341L114.049 234.574C113.566 234.791 113.168 235.16 112.915 235.625C112.524 236.489 113.266 237.426 114.142 237.853C115.74 238.167 117.394 238.011 118.904 237.403C120.605 237.034 122.368 237.071 124.052 237.511C124.606 237.698 125.178 237.829 125.758 237.902C126.058 237.928 126.359 237.885 126.64 237.778C126.921 237.67 127.175 237.501 127.381 237.283C127.584 236.953 127.681 236.569 127.658 236.182C127.634 235.796 127.492 235.426 127.251 235.123C126.751 234.536 126.127 234.067 125.424 233.75C124.343 233.137 123.199 232.645 122.011 232.281C120.82 231.918 119.552 231.898 118.35 232.221C117.554 232.493 116.798 232.87 116.101 233.341Z" fill="#B27B60"/>
</g>
<g style="mix-blend-mode:screen" opacity="0.32">
<path d="M136.77 256.846C136.097 256.602 135.402 256.426 134.695 256.32C133.054 255.915 131.588 254.99 130.517 253.682C132.407 254.043 134.345 254.075 136.246 253.776C138.158 253.469 140.117 253.842 141.783 254.829C142.215 255.118 142.577 255.5 142.842 255.947C143.108 256.394 143.27 256.895 143.317 257.412C143.345 257.933 143.195 258.447 142.893 258.872C142.59 259.296 142.152 259.605 141.651 259.748C141.164 259.788 140.674 259.715 140.219 259.535C139.764 259.356 139.356 259.075 139.026 258.713C138.364 257.989 137.605 257.361 136.77 256.846Z" fill="#B27B60"/>
</g>
<g style="mix-blend-mode:screen" opacity="0.32">
<path d="M120.225 246.511C120.137 246.82 120.126 247.147 120.193 247.462C120.26 247.776 120.404 248.07 120.611 248.316C121.046 248.813 121.604 249.186 122.229 249.4C124.843 250.228 127.624 250.387 130.316 249.863C130.884 249.812 131.598 249.586 131.616 249.026C131.598 248.855 131.541 248.691 131.45 248.546C131.359 248.4 131.236 248.277 131.09 248.186C128.832 246.281 125.979 245.224 123.025 245.197C122.48 245.162 121.933 245.236 121.417 245.415C121.153 245.504 120.911 245.648 120.705 245.837C120.5 246.026 120.336 246.255 120.225 246.511Z" fill="#B27B60"/>
</g>
<g style="mix-blend-mode:screen" opacity="0.32">
<path d="M109.562 245.318C108.735 245.077 107.935 244.752 107.174 244.347C106.321 243.694 105.386 243.156 104.392 242.748C103.851 242.609 103.282 242.624 102.748 242.79C102.215 242.956 101.738 243.268 101.371 243.69C101.004 244.112 100.762 244.627 100.671 245.179C100.581 245.731 100.645 246.297 100.857 246.814C101.122 247.36 101.503 247.842 101.973 248.226C102.442 248.61 102.99 248.887 103.578 249.038C104.764 249.338 105.982 249.492 107.206 249.498C108.433 249.465 109.653 249.68 110.795 250.129C111.676 250.521 112.42 251.16 113.318 251.555C113.745 251.788 114.227 251.899 114.713 251.877C115.199 251.855 115.669 251.7 116.073 251.43C116.364 251.15 116.568 250.792 116.661 250.399C116.755 250.006 116.733 249.594 116.6 249.213C116.318 248.45 115.778 247.81 115.073 247.404C114.372 247.011 113.628 246.698 112.856 246.473L109.562 245.318Z" fill="#B27B60"/>
</g>
<path d="M135.813 235.716L135.717 235.37C135.708 235.154 135.649 234.943 135.545 234.753C135.441 234.563 135.295 234.4 135.118 234.276C134.761 234.032 134.359 233.862 133.935 233.774C133.207 233.617 132.458 233.581 131.719 233.669C131.112 233.75 130.431 233.998 130.287 234.577C130.258 234.736 130.264 234.9 130.305 235.057C130.346 235.214 130.42 235.36 130.523 235.485C130.731 235.733 130.985 235.939 131.272 236.089C132.034 236.504 132.878 236.749 133.744 236.807C134.284 236.894 134.838 236.776 135.296 236.476C135.739 236.164 136.109 236.158 135.813 235.716Z" fill="#652700"/>
<path d="M114.472 233.17C114.597 233.397 114.776 233.59 114.994 233.732C115.213 233.873 115.462 233.957 115.721 233.978C116.243 234.123 116.789 234.157 117.324 234.076C117.592 234.037 117.849 233.941 118.077 233.794C118.304 233.647 118.498 233.453 118.643 233.224C118.784 232.996 118.85 232.729 118.83 232.461C118.81 232.194 118.706 231.94 118.534 231.735C118.533 231.672 118.508 231.613 118.465 231.568C118.422 231.524 118.363 231.497 118.301 231.494L117.839 231.12C117.3 230.936 116.719 230.921 116.171 231.078C115.624 231.235 115.138 231.555 114.778 231.996C114.639 232.154 114.538 232.343 114.485 232.546C114.432 232.75 114.427 232.964 114.472 233.17Z" fill="#B27B60"/>
<path d="M136.945 252.688C136.806 252.151 136.541 251.656 136.172 251.242C135.803 250.829 135.341 250.51 134.824 250.311C134.471 250.178 134.093 250.13 133.718 250.171C133.529 250.194 133.347 250.254 133.182 250.347C133.016 250.441 132.871 250.566 132.754 250.716C132.597 250.992 132.527 251.309 132.553 251.626C132.579 251.942 132.699 252.243 132.897 252.491C133.329 252.994 133.887 253.374 134.513 253.592C134.801 253.755 135.122 253.849 135.452 253.867C135.782 253.884 136.111 253.824 136.414 253.692C137.011 253.416 137.091 253.339 136.945 252.688Z" fill="#652700"/>
<path d="M131.374 241.934C131.184 241.542 130.873 241.222 130.488 241.022C130.102 240.821 129.662 240.75 129.233 240.819C128.377 240.974 127.575 241.344 126.902 241.894C126.685 242.021 126.497 242.193 126.353 242.399C126.209 242.605 126.111 242.84 126.066 243.088C126.075 243.704 126.708 244.118 127.299 244.298C128.355 244.611 129.478 244.606 130.531 244.286C131.134 244.099 131.781 243.707 131.877 243.087C131.973 242.467 131.61 242.561 131.374 241.934Z" fill="#652700"/>
<path d="M104.253 244.68C104.96 244.422 105.626 244.062 106.231 243.613C106.387 243.536 106.525 243.426 106.636 243.292C106.747 243.158 106.828 243.002 106.874 242.834C106.883 242.735 106.869 242.636 106.833 242.543C106.798 242.451 106.741 242.368 106.668 242.301C106.595 242.233 106.507 242.184 106.412 242.157C106.317 242.129 106.217 242.123 106.119 242.141L105.837 241.877L105.856 241.721L105.735 241.706C105.398 241.407 104.964 241.24 104.514 241.235C104.074 241.246 103.639 241.321 103.221 241.457C102.882 241.509 102.558 241.634 102.271 241.821C101.984 242.009 101.74 242.256 101.556 242.546C101.443 242.879 101.443 243.239 101.556 243.572C101.67 243.904 101.89 244.189 102.184 244.382C102.488 244.574 102.83 244.699 103.187 244.75C103.543 244.801 103.906 244.777 104.253 244.68Z" fill="#652700"/>
<path d="M106.637 252.605C106.763 253.016 106.991 253.387 107.301 253.684C107.61 253.982 107.99 254.195 108.405 254.305C109.238 254.5 110.099 254.55 110.95 254.452C111.217 254.451 111.481 254.395 111.726 254.287C111.85 254.237 111.957 254.153 112.036 254.045C112.115 253.937 112.162 253.809 112.172 253.676C112.171 253.549 112.142 253.425 112.086 253.311C112.031 253.198 111.95 253.098 111.851 253.02C111.642 252.871 111.408 252.771 111.201 252.604C110.994 252.437 110.652 251.674 110.342 251.213C110.082 250.836 109.707 250.553 109.273 250.406C108.84 250.259 108.37 250.257 107.935 250.398C107.489 250.548 107.112 250.854 106.873 251.259C106.635 251.665 106.551 252.143 106.637 252.605Z" fill="#652700"/>
<path d="M121.745 253.22C122.184 253.179 122.615 253.08 123.029 252.926C123.288 252.819 123.552 252.676 123.604 252.402C123.656 252.128 123.299 251.766 122.99 251.569L121.447 250.723C121.094 250.49 120.709 250.311 120.303 250.192C120.096 250.129 119.879 250.109 119.665 250.134C119.451 250.158 119.243 250.225 119.056 250.332C118.796 250.519 118.608 250.79 118.524 251.1C118.44 251.409 118.465 251.738 118.595 252.031C118.712 252.316 118.892 252.571 119.121 252.776C119.35 252.982 119.623 253.132 119.919 253.217C120.521 253.341 121.142 253.342 121.745 253.22Z" fill="#652700"/>
<path d="M128.008 260.18C128.187 259.861 128.245 259.488 128.171 259.13C128.097 258.772 127.896 258.453 127.605 258.232C127.303 258.025 126.955 257.893 126.592 257.847C126.228 257.801 125.859 257.842 125.515 257.967C124.833 258.239 124.229 258.675 123.756 259.237C123.659 259.314 123.579 259.412 123.523 259.523C123.466 259.634 123.434 259.756 123.429 259.88C123.455 260.026 123.52 260.161 123.617 260.272C123.715 260.384 123.84 260.467 123.981 260.512C124.855 260.957 125.857 261.084 126.814 260.871C127.05 260.844 127.277 260.768 127.482 260.649C127.688 260.53 127.867 260.37 128.008 260.18Z" fill="#652700"/>
<path d="M140.608 263.27C140.918 263.449 141.264 263.559 141.62 263.591C141.998 263.603 142.365 263.465 142.641 263.207C142.918 262.949 143.08 262.592 143.094 262.215C143.071 261.921 142.987 261.635 142.848 261.375C142.708 261.116 142.517 260.888 142.284 260.707C141.73 260.21 141.065 259.855 140.344 259.67C139.832 259.513 139.283 259.523 138.778 259.7C138.531 259.792 138.319 259.958 138.169 260.174C138.019 260.391 137.939 260.648 137.94 260.911C137.994 261.167 138.099 261.408 138.251 261.621C138.402 261.833 138.595 262.013 138.819 262.147C139.383 262.57 139.982 262.946 140.608 263.27Z" fill="#652700"/>
<path d="M120.152 240.02C120.008 239.67 119.79 239.355 119.514 239.096C118.988 238.757 118.374 238.581 117.749 238.59C117.124 238.598 116.514 238.79 115.997 239.142C115.794 239.266 115.624 239.438 115.503 239.643C115.382 239.849 115.314 240.081 115.304 240.319C115.328 240.499 115.395 240.672 115.497 240.822C115.6 240.972 115.737 241.096 115.896 241.184C116.196 241.304 116.517 241.362 116.84 241.357C117.429 241.424 118.024 241.399 118.605 241.282C118.959 241.23 119.297 241.106 119.6 240.916C119.749 240.82 119.878 240.694 119.978 240.547C120.078 240.399 120.148 240.233 120.182 240.059C120.323 239.778 120.515 240.066 120.152 240.02Z" fill="#652700"/>
<path d="M114.706 233.814C115.372 234.23 116.135 234.465 116.919 234.498C117.312 234.513 117.701 234.426 118.05 234.245C118.399 234.065 118.695 233.797 118.911 233.469C119.074 233.165 119.149 232.822 119.128 232.477C119.106 232.133 118.989 231.802 118.789 231.521L118.662 231.417C118.34 231.215 117.974 231.094 117.596 231.065C117.218 231.035 116.838 231.098 116.489 231.247C115.786 231.556 115.139 231.978 114.575 232.497C114.358 232.681 114.12 232.897 114.137 233.18C114.154 233.463 114.462 233.66 114.706 233.814Z" fill="#652700"/>
<path d="M138.445 368.537C132.473 373.953 122.105 373.482 116.8 367.633C111.496 361.783 110 355.183 115.972 349.767C121.945 344.351 127.474 345.651 132.778 351.5C138.083 357.35 144.417 363.121 138.445 368.537Z" fill="#FBD246"/>
<path d="M207.641 166.467C203.334 170.373 197.165 171.476 194.751 168.814C192.338 166.153 192.313 162.555 196.621 158.649C200.928 154.743 204.079 154.758 206.492 157.42C208.906 160.081 211.948 162.561 207.641 166.467Z" fill="#D56C48"/>
<path d="M167.958 267.736C168.893 270.754 168.02 274.046 166.156 274.623C164.291 275.201 162.514 274.388 161.579 271.37C160.643 268.352 161.374 266.804 163.238 266.226C165.103 265.648 167.023 264.719 167.958 267.736Z" fill="#D56C48"/>
<circle cx="178.036" cy="209.671" r="3.5" fill="#A73D22"/>
<path d="M127.216 201.166C125.573 202.916 121.734 200.802 119.744 198.812C117.755 196.822 115.237 192.904 118.136 190.005C121.036 187.105 124.917 191.118 126.906 193.107C128.896 195.097 128.86 199.416 127.216 201.166Z" fill="#E3AB5C"/>
<path d="M21.7834 159.285C21.1317 151.051 28.0527 142.935 36.1677 142.293C44.2828 141.65 50.6091 144.568 51.2609 152.802C51.9127 161.037 47.3662 164.709 39.2512 165.351C31.1362 165.993 22.4352 167.519 21.7834 159.285Z" fill="#F89945"/>
<path d="M283.012 42.5338C283.788 45.4314 281.852 48.7868 278.997 49.5519C276.141 50.3171 273.689 49.6928 272.913 46.7952C272.137 43.8976 273.518 42.2861 276.373 41.521C279.229 40.7558 282.235 39.6363 283.012 42.5338Z" fill="#FFCC00"/>
</svg>
