<svg width="23" height="24" viewBox="0 0 23 24" fill="none" xmlns="http://www.w3.org/2000/svg">
<mask id="path-1-inside-1_1038_15527" fill="white">
<ellipse cx="15.5351" cy="14.3208" rx="0.976014" ry="1.05515"/>
</mask>
<ellipse cx="15.5351" cy="14.3208" rx="0.976014" ry="1.05515" fill="#443A39"/>
<path d="M15.5111 14.3208C15.5111 14.3608 15.4965 14.382 15.4911 14.3878C15.4887 14.3905 15.4905 14.3875 15.4992 14.3836C15.5088 14.3792 15.5219 14.3759 15.5351 14.3759V16.3759C16.6984 16.3759 17.5111 15.381 17.5111 14.3208H15.5111ZM15.5351 14.3759C15.5483 14.3759 15.5614 14.3792 15.571 14.3836C15.5797 14.3875 15.5815 14.3905 15.579 14.3878C15.5737 14.382 15.5591 14.3608 15.5591 14.3208H13.5591C13.5591 15.381 14.3718 16.3759 15.5351 16.3759V14.3759ZM15.5591 14.3208C15.5591 14.2807 15.5737 14.2595 15.579 14.2537C15.5815 14.2511 15.5797 14.254 15.571 14.258C15.5614 14.2624 15.5483 14.2656 15.5351 14.2656V12.2656C14.3718 12.2656 13.5591 13.2606 13.5591 14.3208H15.5591ZM15.5351 14.2656C15.5219 14.2656 15.5088 14.2624 15.4992 14.258C15.4905 14.254 15.4887 14.2511 15.4911 14.2537C15.4965 14.2595 15.5111 14.2807 15.5111 14.3208H17.5111C17.5111 13.2606 16.6984 12.2656 15.5351 12.2656V14.2656Z" fill="#443A39" mask="url(#path-1-inside-1_1038_15527)"/>
<path d="M18.3175 17.3571V19.7857C18.3175 20.4563 17.8205 21 17.2073 21H4.44018C3.52047 21 2.7749 20.1845 2.7749 19.1786V5.82143C2.7749 4.81548 3.52047 4 4.44018 4H16.0971C16.3916 4 16.674 4.12793 16.8822 4.35566C17.0904 4.58338 17.2073 4.89224 17.2073 5.21429V7.03571" stroke="#443A39" stroke-width="1.5"/>
<path fill-rule="evenodd" clip-rule="evenodd" d="M18.3166 17.3566C18.9297 17.3566 19.4267 16.8129 19.4267 16.1423V12.4994C19.4267 11.8288 18.9297 11.2852 18.3166 11.2852H15.5411C14.0082 11.2852 12.7656 12.6443 12.7656 14.3209C12.7656 15.9974 14.0082 17.3566 15.5411 17.3566H18.3166Z" stroke="#443A39" stroke-width="1.5"/>
<path d="M18.3141 11.2851V8.24936C18.3141 7.57872 17.8171 7.03507 17.2039 7.03507H6.37962C5.88815 7.06035 5.42576 6.7799 5.18506 6.31055" stroke="#443A39" stroke-width="1.5" stroke-linecap="round"/>
</svg>
