<svg width="20" height="21" viewBox="0 0 20 21" fill="none" xmlns="http://www.w3.org/2000/svg">
<rect y="0.5" width="20" height="20" rx="4" fill="black"/>
<path fill-rule="evenodd" clip-rule="evenodd" d="M10.9332 5.83324C10.9332 5.31777 10.5154 4.8999 9.9999 4.8999C9.48444 4.8999 9.06657 5.31777 9.06657 5.83324V9.56657H5.33324C4.81777 9.56657 4.3999 9.98444 4.3999 10.4999C4.3999 11.0154 4.81777 11.4332 5.33324 11.4332H9.06657V15.1666C9.06657 15.682 9.48444 16.0999 9.9999 16.0999C10.5154 16.0999 10.9332 15.682 10.9332 15.1666V11.4332H14.6666C15.182 11.4332 15.5999 11.0154 15.5999 10.4999C15.5999 9.98444 15.182 9.56657 14.6666 9.56657H10.9332V5.83324ZM9.33324 15.1666C9.33324 15.1666 9.33324 15.1666 9.33324 15.1666V15.1666Z" fill="white"/>
</svg>
