<svg width="23" height="24" viewBox="0 0 23 24" fill="none" xmlns="http://www.w3.org/2000/svg">
<path fill-rule="evenodd" clip-rule="evenodd" d="M18.3153 11.4004H3.88525V19.8004C3.88525 20.4631 4.38222 21.0004 4.99525 21.0004H17.2053C17.8183 21.0004 18.3153 20.4631 18.3153 19.8004V11.4004Z" stroke="#443A39" stroke-width="1.5" stroke-linecap="round" stroke-linejoin="round"/>
<path fill-rule="evenodd" clip-rule="evenodd" d="M18.3149 7.79883H3.8849C3.27187 7.79883 2.7749 8.33609 2.7749 8.99883V10.7988C2.7749 11.1302 3.02338 11.3988 3.3299 11.3988H18.8699C19.1764 11.3988 19.4249 11.1302 19.4249 10.7988V8.99883C19.4249 8.33609 18.9279 7.79883 18.3149 7.79883Z" stroke="#443A39" stroke-width="1.5" stroke-linecap="round" stroke-linejoin="round"/>
<path d="M10.545 7.8C8.09269 7.8 5.55005 5.6512 5.55005 3" stroke="#443A39" stroke-width="1.5" stroke-linecap="round" stroke-linejoin="round"/>
<path d="M5.55005 3C8.00241 3 10.545 5.1488 10.545 7.8" stroke="#443A39" stroke-width="1.5" stroke-linecap="round" stroke-linejoin="round"/>
<path d="M11.655 7.8C14.1074 7.8 16.65 5.6512 16.65 3" stroke="#443A39" stroke-width="1.5" stroke-linecap="round" stroke-linejoin="round"/>
<path d="M16.65 3C14.1977 3 11.655 5.1488 11.655 7.8" stroke="#443A39" stroke-width="1.5" stroke-linecap="round" stroke-linejoin="round"/>
<path fill-rule="evenodd" clip-rule="evenodd" d="M9.43506 11.4258H12.7651L12.7651 20.9991H9.43512L9.43506 11.4258Z" stroke="#443A39" stroke-width="1.5" stroke-linecap="round" stroke-linejoin="round"/>
</svg>
