<svg width="26" height="25" viewBox="0 0 26 25" fill="none" xmlns="http://www.w3.org/2000/svg">
<path d="M14.7095 2.04769L14.7093 2.04724C14.3805 1.38236 13.7086 1.11714 13.1478 1.11714C12.5867 1.11714 11.9165 1.38212 11.5855 2.04354L11.5833 2.04807L8.96577 7.3551L3.11061 8.20584L3.11044 8.20587C2.46132 8.30032 1.90852 8.75386 1.70192 9.39196L1.70148 9.39333C1.49999 10.0191 1.66432 10.7149 2.14613 11.179L6.38209 15.309L5.38182 21.1393L5.3811 21.1437C5.27365 21.7892 5.53412 22.4554 6.07818 22.8482L6.59492 22.1323L6.07818 22.8482C6.60985 23.232 7.3196 23.2917 7.91181 22.9762L13.1483 20.2257L18.3817 22.9765C18.382 22.9766 18.3823 22.9768 18.3825 22.9769C18.6482 23.1171 18.9293 23.1764 19.1973 23.1764C19.5557 23.1764 19.9102 23.0674 20.2135 22.8516L20.2135 22.8517L20.2237 22.8442C20.7596 22.4511 21.0234 21.793 20.9153 21.1437L20.9146 21.1393L19.9143 15.309L24.1518 11.1776C24.152 11.1774 24.1522 11.1772 24.1524 11.177C24.1524 11.1769 24.1524 11.1769 24.1525 11.1769C24.6321 10.7098 24.7927 10.0197 24.5922 9.39559C24.3904 8.75903 23.8367 8.30043 23.1858 8.20585L23.0588 9.07953L23.1858 8.20584L17.3304 7.35506L14.7095 2.04769Z" fill="#FFD029" stroke="white" stroke-width="1.76573"/>
</svg>
