<svg width="23" height="16" viewBox="0 0 23 16" fill="none" xmlns="http://www.w3.org/2000/svg">
<g clip-path="url(#clip0_1038_16291)">
<rect width="22.6667" height="16" rx="3" fill="#1A47B8"/>
<path fill-rule="evenodd" clip-rule="evenodd" d="M2.41127 0H0V2.66667L20.2423 16L22.6667 16V13.3333L2.41127 0Z" fill="white"/>
<path d="M0.804233 0L22.6667 14.4378V16H21.8813L0 1.54726V0H0.804233Z" fill="#F93939"/>
<path fill-rule="evenodd" clip-rule="evenodd" d="M20.5079 0H22.6667V2.66667C22.6667 2.66667 8.6455 11.5499 2.15873 16H0V13.3333L20.5079 0Z" fill="white"/>
<path d="M22.6667 0H21.9346L0 14.4502V16H0.804233L22.6667 1.55895V0Z" fill="#F93939"/>
<path fill-rule="evenodd" clip-rule="evenodd" d="M8.24319 0H14.4423V4.93527H22.6667V11.0615H14.4423V16H8.24319V11.0615H0V4.93527H8.24319V0Z" fill="white"/>
<path fill-rule="evenodd" clip-rule="evenodd" d="M9.54386 0H13.1228V6.15385H22.6667V9.84615H13.1228V16H9.54386V9.84615H0V6.15385H9.54386V0Z" fill="#F93939"/>
</g>
<defs>
<clipPath id="clip0_1038_16291">
<rect width="22.6667" height="16" rx="3" fill="white"/>
</clipPath>
</defs>
</svg>
