<svg width="60" height="60" viewBox="0 0 60 60" fill="none" xmlns="http://www.w3.org/2000/svg">
<path d="M26.6424 37.9183H22.5221L25.0972 22.0924H29.2179L26.6424 37.9183ZM19.0558 22.0924L15.1277 32.9775L14.6629 30.6335L14.6633 30.6344L13.2769 23.5173C13.2769 23.5173 13.1092 22.0924 11.3223 22.0924H4.8284L4.7522 22.3603C4.7522 22.3603 6.73806 22.7735 9.06216 24.1692L12.6419 37.9187H16.9349L23.4902 22.0924H19.0558ZM51.4642 37.9183H55.2475L51.9489 22.0919H48.6367C47.1072 22.0919 46.7347 23.2713 46.7347 23.2713L40.5896 37.9183H44.8847L45.7436 35.5675H50.9816L51.4642 37.9183ZM46.9303 32.3201L49.0952 26.3977L50.3131 32.3201H46.9303ZM40.9117 25.8981L41.4997 22.4996C41.4997 22.4996 39.6853 21.8096 37.7939 21.8096C35.7492 21.8096 30.8935 22.7032 30.8935 27.0488C30.8935 31.1373 36.5924 31.1881 36.5924 33.3357C36.5924 35.4833 31.4807 35.0985 29.7937 33.7442L29.1811 37.2977C29.1811 37.2977 31.0209 38.1913 33.8319 38.1913C36.6437 38.1913 40.8855 36.7355 40.8855 32.7731C40.8855 28.6583 35.1353 28.2752 35.1353 26.4861C35.1357 24.6967 39.1485 24.9266 40.9117 25.8981Z" fill="#2566AF"/>
<path d="M14.6633 30.6338L13.2769 23.5167C13.2769 23.5167 13.1092 22.0918 11.3223 22.0918H4.8284L4.7522 22.3598C4.7522 22.3598 7.87344 23.0066 10.8673 25.4302C13.7298 27.7467 14.6633 30.6338 14.6633 30.6338Z" fill="#E6A540"/>
</svg>
