<svg width="36" height="36" viewBox="0 0 36 36" fill="none" xmlns="http://www.w3.org/2000/svg">
<path d="M1.45673 11.4004H34.5433V9.99897C34.5433 6.8959 32.9619 5.32861 29.8125 5.32861H6.18752C3.0388 5.32861 1.45609 6.8959 1.45609 9.99961L1.45673 11.4004ZM1.45673 26.0158C1.45673 29.1195 3.03816 30.6713 6.18752 30.6713H29.8125C32.9612 30.6713 34.5439 29.1195 34.5439 26.0158V14.821H1.45544L1.45673 26.0158ZM6.48902 22.3393V19.5518C6.48902 18.7084 7.07659 18.1054 7.96566 18.1054H11.6569C12.546 18.1054 13.1336 18.7084 13.1336 19.5518V22.3393C13.1336 23.1981 12.546 23.7857 11.6569 23.7857H7.96502C7.07594 23.7857 6.48902 23.1981 6.48902 22.3393Z" fill="black"/>
</svg>
